<svg width="512" height="512" viewBox="0 0 512 512" fill="none" xmlns="http://www.w3.org/2000/svg">
<g clip-path="url(#clip0_724_2675)">
<rect y="-0.00390625" width="512" height="512" rx="256" fill="#1B1C1E"/>
<g clip-path="url(#clip1_724_2675)">
<path d="M255.997 448.895C149.629 448.895 63.0938 362.36 63.0938 255.992C63.0938 149.623 149.629 63.088 255.997 63.088C362.366 63.088 448.901 149.623 448.901 255.992C448.901 362.36 362.366 448.895 255.997 448.895ZM255.997 75.6349C156.549 75.6349 75.6406 156.543 75.6406 255.992C75.6406 355.44 156.549 436.348 255.997 436.348C355.446 436.348 436.354 355.44 436.354 255.992C436.354 156.543 355.446 75.6349 255.997 75.6349Z" fill="#A8ABAF"/>
<path d="M260.842 -0.00390625H251.19V13.9045H260.842V-0.00390625Z" fill="#A8ABAF"/>
<path d="M251.19 19.6758V177.632C252.783 177.525 254.395 177.477 256.016 177.477C257.638 177.477 259.249 177.525 260.842 177.632V19.6758H251.19Z" fill="#A8ABAF"/>
<path d="M260.842 494.228V334.352C259.249 334.458 257.638 334.506 256.016 334.506C254.395 334.506 252.783 334.458 251.19 334.352V494.228H260.842Z" fill="#A8ABAF"/>
<path d="M260.842 500H251.19V511.997H260.842V500Z" fill="#A8ABAF"/>
<path d="M11.2927 251.166H0V260.818H11.2927V251.166Z" fill="#A8ABAF"/>
<path d="M114.366 251.166H17.0596V260.818H114.366V251.166Z" fill="#A8ABAF"/>
<path d="M127.358 251.166H120.157V260.818H127.358V251.166Z" fill="#A8ABAF"/>
<path d="M177.66 251.166H133.156V260.818H177.66C177.554 259.225 177.505 257.613 177.505 255.992C177.505 254.37 177.554 252.759 177.66 251.166Z" fill="#A8ABAF"/>
<path d="M374.285 260.818V251.166H334.376C334.482 252.759 334.53 254.37 334.53 255.992C334.53 257.613 334.482 259.225 334.376 260.818H374.285Z" fill="#A8ABAF"/>
<path d="M387.772 251.166H380.061V260.818H387.772V251.166Z" fill="#A8ABAF"/>
<path d="M491.609 251.166H393.531V260.818H491.609V251.166Z" fill="#A8ABAF"/>
<path d="M512.01 251.166H497.406V260.818H512.01V251.166Z" fill="#A8ABAF"/>
</g>
<g filter="url(#filter0_d_724_2675)">
<path d="M267.922 238.601C269.678 236.526 270.556 234.051 270.556 231.177C270.556 228.304 269.678 225.749 267.922 223.514C266.326 221.119 263.931 219.922 260.738 219.922H240.621V241.715H260.738C263.931 241.715 266.326 240.677 267.922 238.601ZM240.621 281.709V305.178H262.893C266.565 305.178 269.279 303.981 271.035 301.586C272.951 299.031 273.909 296.237 273.909 293.204V292.964C273.909 289.931 272.871 287.297 270.796 285.061C268.88 282.826 266.246 281.709 262.893 281.709H240.621ZM269.12 346.369H187.216C185.46 346.369 183.943 345.731 182.666 344.453C181.389 343.176 180.75 341.659 180.75 339.903V185.197C180.75 183.44 181.389 181.924 182.666 180.646C183.943 179.369 185.46 178.73 187.216 178.73H266.725C289.396 178.73 306.08 182.882 316.777 191.184C327.633 199.326 333.062 211.699 333.062 228.304V229.022C333.062 235.887 331.066 242.034 327.075 247.462C323.083 252.731 318.693 256.563 313.903 258.958C320.289 261.512 325.638 266.062 329.948 272.608C334.419 278.994 336.654 286.019 336.654 293.683C336.654 328.807 314.143 346.369 269.12 346.369Z" fill="white"/>
</g>
<path d="M329.825 339.518C311.741 355.532 288.448 365.759 262.851 367.308C260.589 367.459 258.299 367.528 255.996 367.528C253.693 367.528 251.403 367.459 249.141 367.308C223.544 365.759 200.251 355.532 182.167 339.518L173.434 348.251C193.766 366.472 220.144 378.085 249.141 379.675C251.403 379.798 253.693 379.867 255.996 379.867C258.299 379.867 260.589 379.798 262.851 379.675C291.848 378.085 318.226 366.472 338.558 348.251L329.825 339.518ZM172.474 182.167L163.727 173.42C145.506 193.752 133.894 220.13 132.317 249.141C132.194 251.403 132.125 253.693 132.125 255.996C132.125 258.299 132.194 260.589 132.317 262.851C133.894 291.862 145.506 318.24 163.727 338.572L172.474 329.825C156.474 311.755 146.233 288.462 144.683 262.851C144.533 260.589 144.464 258.299 144.464 255.996C144.464 253.693 144.533 251.403 144.683 249.141C146.233 223.544 156.474 200.237 172.474 182.167ZM379.675 249.141C378.098 220.13 366.486 193.752 348.265 173.42L339.518 182.167C355.518 200.237 365.759 223.544 367.308 249.141C367.459 251.403 367.528 253.693 367.528 255.996C367.528 258.299 367.459 260.589 367.308 262.851C365.759 288.462 355.518 311.755 339.518 329.825L348.265 338.572C366.486 318.24 378.098 291.862 379.675 262.851C379.798 260.589 379.867 258.299 379.867 255.996C379.867 253.693 379.798 251.403 379.675 249.141ZM262.851 132.317C260.589 132.194 258.299 132.125 255.996 132.125C253.693 132.125 251.403 132.194 249.141 132.317C220.144 133.907 193.766 145.52 173.434 163.741L182.167 172.474C200.251 156.474 223.544 146.233 249.141 144.683C251.403 144.533 253.693 144.464 255.996 144.464C258.299 144.464 260.589 144.533 262.851 144.683C288.448 146.233 311.741 156.474 329.825 172.474L338.558 163.741C318.226 145.52 291.848 133.907 262.851 132.317Z" fill="#F26224"/>
</g>
<defs>
<filter id="filter0_d_724_2675" x="164.234" y="170.472" width="188.936" height="200.671" filterUnits="userSpaceOnUse" color-interpolation-filters="sRGB">
<feFlood flood-opacity="0" result="BackgroundImageFix"/>
<feColorMatrix in="SourceAlpha" type="matrix" values="0 0 0 0 0 0 0 0 0 0 0 0 0 0 0 0 0 0 127 0" result="hardAlpha"/>
<feOffset dy="8.25803"/>
<feGaussianBlur stdDeviation="8.25803"/>
<feComposite in2="hardAlpha" operator="out"/>
<feColorMatrix type="matrix" values="0 0 0 0 0 0 0 0 0 0 0 0 0 0 0 0 0 0 0.25 0"/>
<feBlend mode="normal" in2="BackgroundImageFix" result="effect1_dropShadow_724_2675"/>
<feBlend mode="normal" in="SourceGraphic" in2="effect1_dropShadow_724_2675" result="shape"/>
</filter>
<clipPath id="clip0_724_2675">
<rect y="-0.00390625" width="512" height="512" rx="256" fill="white"/>
</clipPath>
<clipPath id="clip1_724_2675">
<rect width="512" height="512" fill="white" transform="translate(0 -0.00390625)"/>
</clipPath>
</defs>
</svg>
