<svg width="241" height="78" viewBox="0 0 241 78" fill="none" xmlns="http://www.w3.org/2000/svg">
<rect y="27" width="32" height="24" rx="1" fill="#FFDA2C"/>
<path fill-rule="evenodd" clip-rule="evenodd" d="M0 27H32V39H0V27Z" fill="#3A99FF"/>
<g clip-path="url(#clip0_468_5558)">
<path d="M89.0005 62.3588C76.12 62.3588 65.6411 51.88 65.6411 38.9994C65.6411 26.1188 76.12 15.64 89.0005 15.64C101.881 15.64 112.36 26.1188 112.36 38.9994C112.36 51.88 101.881 62.3588 89.0005 62.3588ZM89.0005 17.1593C76.9579 17.1593 67.1605 26.9568 67.1605 38.9994C67.1605 51.042 76.9579 60.8395 89.0005 60.8395C101.043 60.8395 110.841 51.042 110.841 38.9994C110.841 26.9568 101.043 17.1593 89.0005 17.1593Z" fill="#A8ABAF"/>
<path d="M89.585 8H88.4163V9.68414H89.585V8Z" fill="#A8ABAF"/>
<path d="M88.4163 10.3831V29.5105C88.6091 29.4977 88.8043 29.4918 89.0006 29.4918C89.197 29.4918 89.3922 29.4977 89.585 29.5105V10.3831H88.4163Z" fill="#A8ABAF"/>
<path d="M89.585 67.8484V48.4883C89.3922 48.5012 89.197 48.507 89.0006 48.507C88.8043 48.507 88.6091 48.5012 88.4163 48.4883V67.8484H89.585Z" fill="#A8ABAF"/>
<path d="M89.585 68.5473H88.4163V70H89.585V68.5473Z" fill="#A8ABAF"/>
<path d="M59.3674 38.415H58V39.5838H59.3674V38.415Z" fill="#A8ABAF"/>
<path d="M71.8506 38.415H60.0675V39.5838H71.8506V38.415Z" fill="#A8ABAF"/>
<path d="M73.4225 38.415H72.5507V39.5838H73.4225V38.415Z" fill="#A8ABAF"/>
<path d="M79.5117 38.415H74.1227V39.5838H79.5117C79.4988 39.3909 79.493 39.1958 79.493 38.9994C79.493 38.8031 79.4988 38.6079 79.5117 38.415Z" fill="#A8ABAF"/>
<path d="M103.322 39.5838V38.415H98.4895C98.5024 38.6079 98.5082 38.8031 98.5082 38.9994C98.5082 39.1958 98.5024 39.3909 98.4895 39.5838H103.322Z" fill="#A8ABAF"/>
<path d="M104.956 38.415H104.022V39.5838H104.956V38.415Z" fill="#A8ABAF"/>
<path d="M117.532 38.415H105.655V39.5838H117.532V38.415Z" fill="#A8ABAF"/>
<path d="M120 38.415H118.232V39.5838H120V38.415Z" fill="#A8ABAF"/>
</g>
<g filter="url(#filter0_d_468_5558)">
<path d="M68.441 35.95C68.6537 35.6987 68.76 35.399 68.76 35.051C68.76 34.703 68.6537 34.3937 68.441 34.123C68.2477 33.833 67.9577 33.688 67.571 33.688H65.135V36.327H67.571C67.9577 36.327 68.2477 36.2013 68.441 35.95ZM65.135 41.17V44.012H67.832C68.2767 44.012 68.6053 43.867 68.818 43.577C69.05 43.2677 69.166 42.9293 69.166 42.562V42.533C69.166 42.1657 69.0403 41.8467 68.789 41.576C68.557 41.3053 68.238 41.17 67.832 41.17H65.135ZM68.586 49H58.668C58.4553 49 58.2717 48.9227 58.117 48.768C57.9623 48.6133 57.885 48.4297 57.885 48.217V29.483C57.885 29.2703 57.9623 29.0867 58.117 28.932C58.2717 28.7773 58.4553 28.7 58.668 28.7H68.296C71.0413 28.7 73.0617 29.2027 74.357 30.208C75.6717 31.194 76.329 32.6923 76.329 34.703V34.79C76.329 35.6213 76.0873 36.3657 75.604 37.023C75.1207 37.661 74.589 38.125 74.009 38.415C74.7823 38.7243 75.43 39.2753 75.952 40.068C76.4933 40.8413 76.764 41.692 76.764 42.62C76.764 46.8733 74.038 49 68.586 49ZM81.8639 30.556C83.6426 29.1253 85.9916 28.41 88.9109 28.41C91.8303 28.41 94.1696 29.135 95.9289 30.585C97.7076 32.0157 98.5969 34.036 98.5969 36.646V41.17C98.5969 43.8187 97.7173 45.839 95.9579 47.231C94.2179 48.6037 91.8689 49.29 88.9109 49.29C85.9529 49.29 83.5943 48.6037 81.8349 47.231C80.0949 45.839 79.2249 43.8187 79.2249 41.17V36.646C79.2249 34.0167 80.1046 31.9867 81.8639 30.556ZM87.3449 43.055C87.7316 43.4417 88.2536 43.635 88.9109 43.635C89.5683 43.635 90.0903 43.4417 90.4769 43.055C90.8636 42.6683 91.0569 42.0787 91.0569 41.286V36.414C91.0569 35.6407 90.8636 35.0607 90.4769 34.674C90.0903 34.268 89.5683 34.065 88.9109 34.065C88.2536 34.065 87.7316 34.268 87.3449 34.674C86.9583 35.0607 86.7649 35.6407 86.7649 36.414V41.286C86.7649 42.0787 86.9583 42.6683 87.3449 43.055ZM102.564 28.7H107.813C108.026 28.7 108.21 28.7773 108.364 28.932C108.519 29.0867 108.596 29.2703 108.596 29.483V37.4L113.497 29.367C113.749 28.9223 114.145 28.7 114.686 28.7H119.268C119.481 28.7 119.665 28.7773 119.819 28.932C119.974 29.0867 120.051 29.2703 120.051 29.483V48.217C120.051 48.4297 119.974 48.6133 119.819 48.768C119.665 48.9227 119.481 49 119.268 49H114.019C113.807 49 113.623 48.9227 113.468 48.768C113.314 48.6133 113.236 48.4297 113.236 48.217V40.938L108.335 48.333C108.045 48.7777 107.649 49 107.146 49H102.564C102.352 49 102.168 48.9227 102.013 48.768C101.859 48.6133 101.781 48.4297 101.781 48.217V29.483C101.781 29.2703 101.859 29.0867 102.013 28.932C102.168 28.7773 102.352 28.7 102.564 28.7ZM112.018 22.726C112.018 22.3587 112.202 22.175 112.569 22.175H115.44C115.808 22.175 115.991 22.3587 115.991 22.726C115.991 24.0987 115.556 25.2007 114.686 26.032C113.816 26.844 112.531 27.25 110.829 27.25C109.147 27.25 107.871 26.8343 107.001 26.003C106.131 25.1717 105.696 24.0793 105.696 22.726C105.696 22.3587 105.88 22.175 106.247 22.175H109.118C109.486 22.175 109.669 22.3587 109.669 22.726C109.669 23.7893 110.056 24.321 110.829 24.321C111.622 24.321 112.018 23.7893 112.018 22.726ZM136.546 28.7H142.23C142.442 28.7 142.626 28.7773 142.781 28.932C142.935 29.0867 143.013 29.2703 143.013 29.483V48.217C143.013 48.4297 142.935 48.6133 142.781 48.768C142.626 48.9227 142.442 49 142.23 49H136.546C136.333 49 136.149 48.9227 135.995 48.768C135.84 48.6133 135.763 48.4297 135.763 48.217V41.953H131.065V48.217C131.065 48.4297 130.987 48.6133 130.833 48.768C130.678 48.9227 130.494 49 130.282 49H124.598C124.385 49 124.201 48.9323 124.047 48.797C123.892 48.6423 123.815 48.449 123.815 48.217V29.483C123.815 29.2703 123.892 29.0867 124.047 28.932C124.201 28.7773 124.385 28.7 124.598 28.7H130.282C130.494 28.7 130.678 28.7773 130.833 28.932C130.987 29.0867 131.065 29.2703 131.065 29.483V35.573H135.763V29.483C135.763 29.2703 135.84 29.0867 135.995 28.932C136.149 28.7773 136.333 28.7 136.546 28.7ZM147.913 42.794H150.813C151.78 42.794 152.312 42.6587 152.408 42.388L145.651 29.599C145.632 29.541 145.622 29.4733 145.622 29.396C145.7 28.932 145.941 28.7 146.347 28.7H152.408C152.814 28.7 153.124 28.932 153.336 29.396L156.033 35.109L158.179 29.396C158.373 28.932 158.701 28.7 159.165 28.7H165.168C165.342 28.7 165.497 28.7677 165.632 28.903C165.768 29.019 165.835 29.1543 165.835 29.309C165.835 29.4637 165.826 29.5603 165.806 29.599L160.035 43.084C159.03 45.4427 157.967 47.0183 156.845 47.811C155.743 48.6037 153.974 49 151.538 49H147.913C147.701 49 147.517 48.9227 147.362 48.768C147.208 48.6133 147.13 48.4297 147.13 48.217V43.577C147.13 43.3643 147.208 43.1807 147.362 43.026C147.517 42.8713 147.701 42.794 147.913 42.794ZM191.835 49H168.664C168.451 49 168.268 48.9227 168.113 48.768C167.958 48.6133 167.881 48.4297 167.881 48.217V29.483C167.881 29.251 167.958 29.0673 168.113 28.932C168.268 28.7773 168.451 28.7 168.664 28.7H174.058C174.271 28.7 174.454 28.7773 174.609 28.932C174.764 29.0867 174.841 29.2703 174.841 29.483V42.62H177.074V29.483C177.074 29.2703 177.151 29.0867 177.306 28.932C177.461 28.7773 177.644 28.7 177.857 28.7H182.671C182.884 28.7 183.067 28.7773 183.222 28.932C183.377 29.0867 183.454 29.2703 183.454 29.483V42.62H185.658V29.483C185.658 29.2703 185.735 29.0867 185.89 28.932C186.045 28.7773 186.228 28.7 186.441 28.7H191.835C192.048 28.7 192.231 28.7773 192.386 28.932C192.541 29.0867 192.618 29.2703 192.618 29.483V48.217C192.618 48.4297 192.541 48.6133 192.386 48.768C192.231 48.9227 192.048 49 191.835 49ZM215.395 48.043C215.453 48.1397 215.482 48.2653 215.482 48.42C215.482 48.5553 215.414 48.6907 215.279 48.826C215.163 48.942 215.018 49 214.844 49H208.232C207.671 49 207.275 48.7777 207.043 48.333L203.505 42.011V48.217C203.505 48.4297 203.427 48.6133 203.273 48.768C203.118 48.9227 202.934 49 202.722 49H197.183C196.97 49 196.786 48.9227 196.632 48.768C196.477 48.6133 196.4 48.4297 196.4 48.217V29.483C196.4 29.2703 196.477 29.0867 196.632 28.932C196.786 28.7773 196.97 28.7 197.183 28.7H202.722C202.934 28.7 203.118 28.7773 203.273 28.932C203.427 29.0867 203.505 29.2703 203.505 29.483V35.225L206.782 29.338C206.994 28.9127 207.381 28.7 207.942 28.7H214.351C214.525 28.7 214.67 28.7677 214.786 28.903C214.921 29.019 214.989 29.1543 214.989 29.309C214.989 29.4443 214.96 29.5603 214.902 29.657L209.682 38.415L215.395 48.043ZM224.019 28.7H230.312C231.008 28.7 231.443 29.019 231.617 29.657L238.084 48.159C238.104 48.217 238.113 48.3137 238.113 48.449C238.113 48.565 238.046 48.6907 237.91 48.826C237.794 48.942 237.649 49 237.475 49H232.11C231.53 49 231.153 48.7583 230.979 48.275L230.283 46.361H224.048L223.352 48.275C223.178 48.7583 222.801 49 222.221 49H216.856C216.682 49 216.528 48.942 216.392 48.826C216.276 48.6907 216.218 48.565 216.218 48.449C216.218 48.3137 216.228 48.217 216.247 48.159L222.714 29.657C222.888 29.019 223.323 28.7 224.019 28.7ZM225.527 40.706H228.804L227.151 35.312L225.527 40.706Z" fill="url(#paint0_linear_468_5558)"/>
</g>
<path d="M97.9402 49.114C95.7504 51.0531 92.9297 52.2916 89.8301 52.4792C89.5562 52.4975 89.2789 52.5058 89 52.5058C88.7211 52.5058 88.4438 52.4975 88.1699 52.4792C85.0703 52.2916 82.2496 51.0531 80.0598 49.114L79.0022 50.1716C81.4643 52.378 84.6586 53.7842 88.1699 53.9768C88.4438 53.9917 88.7211 54 89 54C89.2789 54 89.5562 53.9917 89.8301 53.9768C93.3414 53.7842 96.5357 52.378 98.9978 50.1716L97.9402 49.114ZM78.886 30.0598L77.8268 29.0006C75.6204 31.4626 74.2142 34.6569 74.0232 38.1699C74.0083 38.4438 74 38.7211 74 39C74 39.2789 74.0083 39.5562 74.0232 39.8301C74.2142 43.3431 75.6204 46.5374 77.8268 48.9994L78.886 47.9402C76.9485 45.7521 75.7084 42.9314 75.5208 39.8301C75.5025 39.5562 75.4942 39.2789 75.4942 39C75.4942 38.7211 75.5025 38.4438 75.5208 38.1699C75.7084 35.0703 76.9485 32.2479 78.886 30.0598ZM103.977 38.1699C103.786 34.6569 102.38 31.4626 100.173 29.0006L99.114 30.0598C101.051 32.2479 102.292 35.0703 102.479 38.1699C102.498 38.4438 102.506 38.7211 102.506 39C102.506 39.2789 102.498 39.5562 102.479 39.8301C102.292 42.9314 101.051 45.7521 99.114 47.9402L100.173 48.9994C102.38 46.5374 103.786 43.3431 103.977 39.8301C103.992 39.5562 104 39.2789 104 39C104 38.7211 103.992 38.4438 103.977 38.1699ZM89.8301 24.0232C89.5562 24.0083 89.2789 24 89 24C88.7211 24 88.4438 24.0083 88.1699 24.0232C84.6586 24.2158 81.4643 25.622 79.0022 27.8284L80.0598 28.886C82.2496 26.9485 85.0703 25.7084 88.1699 25.5208C88.4438 25.5025 88.7211 25.4942 89 25.4942C89.2789 25.4942 89.5562 25.5025 89.8301 25.5208C92.9297 25.7084 95.7504 26.9485 97.9402 28.886L98.9978 27.8284C96.5357 25.622 93.3414 24.2158 89.8301 24.0232Z" fill="#F26224"/>
<defs>
<filter id="filter0_d_468_5558" x="55.885" y="21.175" width="184.228" height="31.115" filterUnits="userSpaceOnUse" color-interpolation-filters="sRGB">
<feFlood flood-opacity="0" result="BackgroundImageFix"/>
<feColorMatrix in="SourceAlpha" type="matrix" values="0 0 0 0 0 0 0 0 0 0 0 0 0 0 0 0 0 0 127 0" result="hardAlpha"/>
<feOffset dy="1"/>
<feGaussianBlur stdDeviation="1"/>
<feComposite in2="hardAlpha" operator="out"/>
<feColorMatrix type="matrix" values="0 0 0 0 0 0 0 0 0 0 0 0 0 0 0 0 0 0 0.25 0"/>
<feBlend mode="normal" in2="BackgroundImageFix" result="effect1_dropShadow_468_5558"/>
<feBlend mode="normal" in="SourceGraphic" in2="effect1_dropShadow_468_5558" result="shape"/>
</filter>
<linearGradient id="paint0_linear_468_5558" x1="56" y1="40" x2="239" y2="40" gradientUnits="userSpaceOnUse">
<stop stop-color="#F9FAFB"/>
<stop offset="1" stop-color="#D2D2D2"/>
</linearGradient>
<clipPath id="clip0_468_5558">
<rect width="62" height="62" fill="white" transform="translate(58 8)"/>
</clipPath>
</defs>
</svg>
