<svg width="121" height="57" viewBox="0 0 121 57" fill="none" xmlns="http://www.w3.org/2000/svg">
<path d="M25.67 23V13.718H33.015V23H31.052V15.356H27.633V23H25.67ZM38.3205 13.718C39.5165 13.718 40.3875 13.978 40.9335 14.498C41.4882 15.0093 41.7655 15.7157 41.7655 16.617C41.7655 17.0243 41.7049 17.4143 41.5835 17.787C41.4622 18.151 41.2585 18.4803 40.9725 18.775C40.6952 19.061 40.3269 19.2863 39.8675 19.451C39.4082 19.6157 38.8405 19.698 38.1645 19.698H37.3195V23H35.3565V13.718H38.3205ZM38.2165 15.33H37.3195V18.086H37.9695C38.3422 18.086 38.6629 18.0383 38.9315 17.943C39.2002 17.8477 39.4082 17.696 39.5555 17.488C39.7029 17.28 39.7765 17.0113 39.7765 16.682C39.7765 16.2227 39.6509 15.8847 39.3995 15.668C39.1482 15.4427 38.7539 15.33 38.2165 15.33ZM51.9436 18.346C51.9436 19.0653 51.8526 19.7197 51.6706 20.309C51.4973 20.8897 51.2286 21.3923 50.8646 21.817C50.5093 22.2417 50.0499 22.5667 49.4866 22.792C48.9319 23.0173 48.2776 23.13 47.5236 23.13C46.7696 23.13 46.1109 23.0173 45.5476 22.792C44.9929 22.558 44.5336 22.233 44.1696 21.817C43.8143 21.3923 43.5456 20.8853 43.3636 20.296C43.1903 19.7067 43.1036 19.0523 43.1036 18.333C43.1036 17.371 43.2596 16.5347 43.5716 15.824C43.8923 15.1133 44.3776 14.563 45.0276 14.173C45.6863 13.7743 46.5226 13.575 47.5366 13.575C48.5419 13.575 49.3696 13.7743 50.0196 14.173C50.6696 14.563 51.1506 15.1177 51.4626 15.837C51.7833 16.5477 51.9436 17.384 51.9436 18.346ZM45.1706 18.346C45.1706 18.996 45.2529 19.555 45.4176 20.023C45.5823 20.491 45.8379 20.8507 46.1846 21.102C46.5313 21.3533 46.9776 21.479 47.5236 21.479C48.0869 21.479 48.5376 21.3533 48.8756 21.102C49.2223 20.8507 49.4736 20.491 49.6296 20.023C49.7943 19.555 49.8766 18.996 49.8766 18.346C49.8766 17.3667 49.6946 16.5997 49.3306 16.045C48.9666 15.4903 48.3686 15.213 47.5366 15.213C46.9819 15.213 46.5313 15.3387 46.1846 15.59C45.8379 15.8413 45.5823 16.201 45.4176 16.669C45.2529 17.137 45.1706 17.696 45.1706 18.346ZM64.1872 23H61.9512L58.5842 18.294V23H56.6212V13.718H58.5842V18.216L61.9122 13.718H64.0052L60.6252 18.177L64.1872 23ZM68.2415 13.718C69.0649 13.718 69.7539 13.796 70.3085 13.952C70.8719 14.0993 71.2922 14.3463 71.5695 14.693C71.8555 15.031 71.9985 15.4903 71.9985 16.071C71.9985 16.4177 71.9422 16.734 71.8295 17.02C71.7169 17.306 71.5522 17.54 71.3355 17.722C71.1275 17.904 70.8719 18.021 70.5685 18.073V18.138C70.8805 18.1987 71.1622 18.307 71.4135 18.463C71.6649 18.619 71.8642 18.8443 72.0115 19.139C72.1589 19.4337 72.2325 19.8237 72.2325 20.309C72.2325 20.8723 72.0939 21.3577 71.8165 21.765C71.5479 22.1637 71.1579 22.4713 70.6465 22.688C70.1352 22.896 69.5285 23 68.8265 23H65.3555V13.718H68.2415ZM68.4625 17.397C69.0345 17.397 69.4289 17.306 69.6455 17.124C69.8709 16.942 69.9835 16.6777 69.9835 16.331C69.9835 15.9757 69.8535 15.72 69.5935 15.564C69.3335 15.408 68.9219 15.33 68.3585 15.33H67.3185V17.397H68.4625ZM67.3185 18.957V21.375H68.6055C69.1949 21.375 69.6065 21.2623 69.8405 21.037C70.0745 20.803 70.1915 20.4953 70.1915 20.114C70.1915 19.88 70.1395 19.6763 70.0355 19.503C69.9402 19.3297 69.7712 19.1953 69.5285 19.1C69.2859 19.0047 68.9565 18.957 68.5405 18.957H67.3185ZM79.4329 23H74.0899V13.718H79.4329V15.33H76.0529V17.371H79.1989V18.983H76.0529V21.375H79.4329V23ZM85.3033 15.226C84.9307 15.226 84.597 15.2997 84.3023 15.447C84.0163 15.5943 83.7737 15.8067 83.5743 16.084C83.375 16.3527 83.2233 16.682 83.1193 17.072C83.024 17.462 82.9763 17.8997 82.9763 18.385C82.9763 19.0437 83.0543 19.607 83.2103 20.075C83.375 20.5343 83.6307 20.8853 83.9773 21.128C84.324 21.3707 84.766 21.492 85.3033 21.492C85.6847 21.492 86.0617 21.4487 86.4343 21.362C86.8157 21.2753 87.2273 21.154 87.6693 20.998V22.649C87.262 22.8137 86.859 22.935 86.4603 23.013C86.0617 23.091 85.6153 23.13 85.1213 23.13C84.168 23.13 83.3793 22.935 82.7553 22.545C82.14 22.1463 81.685 21.5917 81.3903 20.881C81.0957 20.1617 80.9483 19.3253 80.9483 18.372C80.9483 17.67 81.0437 17.0287 81.2343 16.448C81.425 15.8587 81.7023 15.3517 82.0663 14.927C82.439 14.5023 82.894 14.173 83.4313 13.939C83.9773 13.705 84.6013 13.588 85.3033 13.588C85.7627 13.588 86.222 13.6487 86.6813 13.77C87.1493 13.8827 87.5957 14.0387 88.0203 14.238L87.3833 15.837C87.0367 15.6723 86.6857 15.5293 86.3303 15.408C85.9837 15.2867 85.6413 15.226 85.3033 15.226ZM93.2167 23H91.2537V15.356H88.7317V13.718H95.7387V15.356H93.2167V23Z" fill="white"/>
<path d="M55.1665 36L60.4998 41.3333L65.8332 36" stroke="white" stroke-opacity="0.5" stroke-width="2" stroke-linecap="round" stroke-linejoin="round"/>
<path d="M53 41.3333L60.5 48.3333L68 41.3333" stroke="white" stroke-width="2" stroke-linecap="round" stroke-linejoin="round"/>
</svg>
