<svg width="40" height="40" viewBox="0 0 40 40" fill="none" xmlns="http://www.w3.org/2000/svg">
<g clip-path="url(#clip0_279_86)">
<path d="M20 40C31.0457 40 40 31.0457 40 20C40 8.95431 31.0457 0 20 0C8.95431 0 0 8.95431 0 20C0 31.0457 8.95431 40 20 40Z" fill="#FD8469"/>
<path d="M20.0945 28.5669C20.063 28.5669 20.0315 28.5984 20 28.5984C19.9685 28.5984 19.937 28.5669 19.9055 28.5669H20.0945Z" fill="#84DBFF"/>
<path d="M35.5276 32.5984C31.874 37.1023 26.2677 40 20 40C13.7323 40 8.12599 37.1023 4.47244 32.5984C7.08662 29.1023 11.0866 27.37 14.3622 26.5197C14.1102 28.5984 15.1811 31.37 15.2126 31.3071C16.315 28.7874 20 28.5669 20 28.5669C20 28.5669 23.685 28.7874 24.7559 31.3071C24.7874 31.37 25.8898 28.5984 25.6063 26.5197C28.9134 27.37 32.9449 29.1023 35.5276 32.5984Z" fill="#84DBFF"/>
<path d="M24.5039 24.567C24.5039 24.567 24.5039 24.567 24.5039 24.5985C24.5039 24.9134 24.3465 26.9292 20.0945 28.5355H19.9055C15.6535 26.9292 15.4961 24.9134 15.4961 24.5985C15.4961 24.567 15.4961 24.567 15.4961 24.567C15.4961 24.1575 15.5906 23.7481 15.685 23.3386C16.9134 24.8819 18.3937 25.9213 20 25.9213C21.6063 25.9213 23.0866 24.8819 24.315 23.3386C24.4094 23.7481 24.5039 24.1575 24.5039 24.567Z" fill="white"/>
<path d="M24.5039 24.5669C24.5039 24.5669 24.7244 26.8346 20 28.5984C20 28.5984 23.685 28.8189 24.7559 31.3385C24.8189 31.4015 26.9291 25.9212 24.5039 24.5669Z" fill="#54C0EB"/>
<path d="M15.4961 24.5669C13.0709 25.9212 15.1811 31.4015 15.2441 31.3071C16.3464 28.7874 20 28.5669 20 28.5669C15.2756 26.8346 15.4961 24.5669 15.4961 24.5669Z" fill="#54C0EB"/>
<path d="M26.6142 16.5984C26.3307 18.5511 25.4803 20.3779 24.063 21.7637C23.7795 22.0472 23.5275 22.2677 23.2126 22.4881L22.7087 20.8818H17.2913L16.7874 22.4881C15.7795 21.7322 13.6693 19.622 13.6378 17.6378C12.7559 6.33067 21.4173 8.72437 21.4173 8.72437C27.2441 8.31492 27.0551 13.4488 26.6142 16.5984Z" fill="white"/>
<path d="M27.7795 18.6456C27.3386 19.37 26.7401 19.8739 26.1732 20.0629C26.3937 19.559 26.5827 19.0235 26.7401 18.4881C26.7401 18.4881 26.7401 18.4881 26.7401 18.4566C26.8661 17.9842 26.9921 17.5117 27.1181 17.0393H27.0866C27.2126 16.5668 27.3386 16.0944 27.4331 15.6219C27.559 15.6219 27.685 15.6849 27.811 15.7479C28.5039 16.1889 28.4724 17.4802 27.7795 18.6456Z" fill="white"/>
<path d="M13.8268 20.063C13.2598 19.874 12.6614 19.3701 12.2205 18.6457C11.4961 17.4803 11.4961 16.189 12.189 15.7795C12.252 15.748 12.2835 15.7166 12.3465 15.7166C12.7244 17.1969 13.1653 18.2992 13.2598 18.5197C13.4173 19.0236 13.6063 19.5591 13.8268 20.063Z" fill="white"/>
<path d="M23.4331 5.57482C23.685 2.67719 19.0866 2.86616 19.0866 2.86616C12.126 3.87404 11.3701 10.3622 11.3701 10.3622L12.315 9.22837C10.8347 12.4725 13.0709 18.0473 13.2599 18.4882C14.4252 22.3622 17.0079 25.9213 20 25.9213C22.9921 25.9213 25.5748 22.3622 26.7402 18.4882C26.7402 18.4882 26.7402 18.4882 26.7402 18.4567C26.8662 17.9843 26.9921 17.5118 27.0866 17.0394H27.0551C27.685 14.5197 28.378 11.9685 28.378 11.9685C30.1732 2.92916 23.4331 5.57482 23.4331 5.57482ZM26.6142 16.5984C26.3307 18.5512 25.4803 20.378 24.063 21.7638C23.7795 22.0473 23.4961 22.2677 23.2126 22.4882L22.7087 20.9134H17.2913L16.7874 22.5197C15.7795 21.7638 14.9291 20.7244 14.2362 19.5276C13.9213 18.8977 13.7323 18.2362 13.6378 17.6693C12.7559 6.36223 21.4173 8.75593 21.4173 8.75593C27.2441 8.31498 27.0551 13.4488 26.6142 16.5984Z" fill="#324A5E"/>
<path d="M23.4331 5.57482C23.685 2.67719 19.0866 2.86616 19.0866 2.86616C12.126 3.87404 11.3701 10.3622 11.3701 10.3622L12.315 9.22837C10.8347 12.4725 13.0709 18.0473 13.2599 18.4882C14.4252 22.3622 17.0079 25.9213 20 25.9213C22.9921 25.9213 25.5748 22.3622 26.7402 18.4882C26.7402 18.4882 26.7402 18.4882 26.7402 18.4567C26.8662 17.9843 26.9921 17.5118 27.0866 17.0394H27.0551C27.685 14.5197 28.378 11.9685 28.378 11.9685C30.1732 2.92916 23.4331 5.57482 23.4331 5.57482ZM26.6142 16.5984C26.3307 18.5512 25.4803 20.378 24.063 21.7638C23.7795 22.0473 23.4961 22.2677 23.2126 22.4882L22.7087 20.9134H17.2913L16.7874 22.5197C15.7795 21.7638 14.9291 20.7244 14.2362 19.5276C13.9213 18.8977 13.7323 18.2362 13.6378 17.6693C12.7559 6.36223 21.4173 8.75593 21.4173 8.75593C27.2441 8.31498 27.0551 13.4488 26.6142 16.5984Z" fill="#324A5E"/>
<path d="M23.4331 5.57482C23.685 2.67719 19.0866 2.86616 19.0866 2.86616C12.126 3.87404 11.3701 10.3622 11.3701 10.3622L12.315 9.22837C10.8347 12.4725 13.0709 18.0473 13.2599 18.4882C14.4252 22.3622 17.0079 25.9213 20 25.9213C22.9921 25.9213 25.5748 22.3622 26.7402 18.4882C26.7402 18.4882 26.7402 18.4882 26.7402 18.4567C26.8662 17.9843 26.9921 17.5118 27.0866 17.0394H27.0551C27.685 14.5197 28.378 11.9685 28.378 11.9685C30.1732 2.92916 23.4331 5.57482 23.4331 5.57482ZM26.6142 16.5984C26.3307 18.5512 25.4803 20.378 24.063 21.7638C23.7795 22.0473 23.4961 22.2677 23.2126 22.4882L22.7087 20.9134H17.2913L16.7874 22.5197C15.7795 21.7638 13.6693 19.6536 13.6378 17.6693C12.7559 6.36223 21.4173 8.75593 21.4173 8.75593C27.2441 8.31498 27.0551 13.4488 26.6142 16.5984Z" fill="#324A5E"/>
<path d="M17.7953 21.9843C18.3307 22.5827 19.1181 22.9921 20 22.9921C20.8819 22.9921 21.6693 22.6142 22.2047 21.9843H17.7953Z" fill="white"/>
</g>
<defs>
<clipPath id="clip0_279_86">
<rect width="40" height="40" fill="white"/>
</clipPath>
</defs>
</svg>
