<svg width="40" height="40" viewBox="0 0 40 40" fill="none" xmlns="http://www.w3.org/2000/svg">
<rect width="40" height="40" rx="20" fill="#FFF844"/>
<g clip-path="url(#clip0_292_436)">
<path d="M33.1797 15.8984H20H6.82031C6.3669 15.8984 6 16.2653 6 16.7188V31.4844C6 31.9378 6.3669 32.3047 6.82031 32.3047H20H33.1797C33.6331 32.3047 34 31.9378 34 31.4844V16.7188C34 16.2653 33.6331 15.8984 33.1797 15.8984Z" fill="#59C36A"/>
<path d="M34 31.4844V16.7188C34 16.2653 33.6331 15.8984 33.1797 15.8984H20V32.3047H33.1797C33.6331 32.3047 34 31.9378 34 31.4844Z" fill="#59C36A"/>
<path d="M28.5692 28.84L23.5208 24.7385C23.1691 24.4525 23.1162 23.9358 23.4014 23.5841C23.689 23.2341 24.2048 23.1812 24.5557 23.4648L29.6041 27.5663C29.9558 27.8523 30.0087 28.369 29.7235 28.7207C29.4368 29.0724 28.9209 29.1251 28.5692 28.84Z" fill="#149084"/>
<path d="M10.2764 28.7206C9.9912 28.3689 10.0441 27.8522 10.3958 27.5663L15.4442 23.4647C15.7975 23.1787 16.3118 23.2324 16.5985 23.5841C16.8837 23.9358 16.8309 24.4525 16.4792 24.7384L11.4307 28.84C11.0804 29.1239 10.5642 29.0736 10.2764 28.7206Z" fill="#149084"/>
<path d="M29.7236 19.4825C29.4376 19.1316 28.9217 19.0772 28.5692 19.3631L20 26.3262L11.4308 19.3631C11.0807 19.0787 10.564 19.1316 10.2764 19.4825C10.1531 19.6347 10.093 19.8174 10.093 19.9984C10.093 20.2371 10.1964 20.4743 10.3958 20.6369L19.4825 28.0197C19.4834 28.0197 19.4841 28.0205 19.4849 28.0213C19.6186 28.1295 19.807 28.1905 20 28.1917C20.1874 28.1927 20.3791 28.1376 20.5296 28.0093L29.6043 20.6369C29.9559 20.3509 30.0088 19.8342 29.7236 19.4825Z" fill="#149084"/>
<path d="M29.6042 20.6369C29.9559 20.3509 30.0087 19.8342 29.7236 19.4826C29.4376 19.1317 28.9217 19.0772 28.5693 19.3632L20 26.3262V28.1917C20.1874 28.1928 20.3791 28.1376 20.5295 28.0093L29.6042 20.6369Z" fill="#149084"/>
<path d="M20 13.4375L19.1797 14.2578V20H20H20.8203V12.6172L20 13.4375Z" fill="#F0F7FF"/>
<path d="M20 13.4375V20H20.8203V12.6172L20 13.4375Z" fill="#C7CFE1"/>
<path d="M21.6406 19.1797H20H18.3594C17.906 19.1797 17.5391 19.5466 17.5391 20C17.5391 20.4534 17.906 20.8203 18.3594 20.8203H20H21.6406C22.094 20.8203 22.4609 20.4534 22.4609 20C22.4609 19.5466 22.094 19.1797 21.6406 19.1797Z" fill="#F0F7FF"/>
<path d="M22.4609 20C22.4609 19.5466 22.094 19.1797 21.6406 19.1797H20V20.8203H21.6406C22.094 20.8203 22.4609 20.4534 22.4609 20Z" fill="#C7CFE1"/>
<path d="M25.908 10.9766L27.245 8.97062C27.4125 8.71906 27.4284 8.39542 27.2859 8.12866C27.1433 7.86189 26.8653 7.69531 26.5625 7.69531H20C19.547 7.69531 19.1797 8.06248 19.1797 8.51562V14.2578H20H26.5625C26.8653 14.2578 27.1433 14.0912 27.2859 13.8244C27.4285 13.5576 27.4125 13.234 27.2451 12.9824L25.908 10.9766Z" fill="#FA5D0F"/>
</g>
<defs>
<clipPath id="clip0_292_436">
<rect width="28" height="28" fill="white" transform="translate(6 6)"/>
</clipPath>
</defs>
</svg>
