<svg width="40" height="40" viewBox="0 0 40 40" fill="none" xmlns="http://www.w3.org/2000/svg">
<g clip-path="url(#clip0_279_19)">
<path d="M20 40C31.0457 40 40 31.0457 40 20C40 8.9543 31.0457 0 20 0C8.9543 0 0 8.9543 0 20C0 31.0457 8.9543 40 20 40Z" fill="#FFC537"/>
<path d="M12.4904 27.49C12.42 27.4912 12.3506 27.5063 12.2861 27.5345C12.2215 27.5626 12.1632 27.6032 12.1143 27.6538C12.0655 27.7045 12.0271 27.7643 12.0014 27.8298C11.9757 27.8953 11.9631 27.9653 11.9644 28.0357V34.462C11.9644 34.5324 11.9782 34.6021 12.0051 34.6672C12.032 34.7322 12.0714 34.7914 12.1212 34.8412C12.171 34.891 12.2301 34.9304 12.2951 34.9574C12.3601 34.9844 12.4299 34.9982 12.5003 34.9982C12.5707 34.9982 12.6404 34.9844 12.7054 34.9574C12.7705 34.9304 12.8296 34.891 12.8793 34.8412C12.9291 34.7914 12.9686 34.7322 12.9955 34.6672C13.0224 34.6021 13.0362 34.5324 13.0361 34.462V28.0357C13.0375 27.9637 13.0243 27.8921 12.9973 27.8252C12.9704 27.7584 12.9302 27.6977 12.8793 27.6468C12.8283 27.5958 12.7676 27.5557 12.7008 27.5287C12.634 27.5018 12.5624 27.4886 12.4904 27.49Z" fill="#E9E9FF"/>
<path d="M27.4903 27.49C27.4199 27.4912 27.3504 27.5063 27.2859 27.5345C27.2214 27.5626 27.163 27.6032 27.1142 27.6538C27.0654 27.7045 27.027 27.7643 27.0013 27.8298C26.9755 27.8953 26.963 27.9653 26.9643 28.0357V34.462C26.9642 34.5324 26.9781 34.602 27.005 34.6671C27.0319 34.7322 27.0713 34.7913 27.1211 34.8411C27.1709 34.8909 27.23 34.9304 27.295 34.9573C27.36 34.9843 27.4297 34.9982 27.5001 34.9982C27.5705 34.9982 27.6403 34.9843 27.7053 34.9573C27.7703 34.9304 27.8294 34.8909 27.8792 34.8411C27.9289 34.7913 27.9684 34.7322 27.9953 34.6671C28.0222 34.602 28.036 34.5324 28.036 34.462V28.0357C28.0373 27.9637 28.0242 27.8921 27.9972 27.8252C27.9703 27.7584 27.9301 27.6977 27.8792 27.6468C27.8282 27.5958 27.7675 27.5557 27.7007 27.5287C27.6339 27.5018 27.5623 27.4886 27.4903 27.49Z" fill="#E9E9FF"/>
<path d="M19.9369 25.3506C19.8047 25.3658 19.6828 25.4297 19.595 25.5298C19.5073 25.63 19.46 25.7592 19.4624 25.8924V34.462C19.4624 34.5324 19.4762 34.602 19.5032 34.6671C19.5301 34.7321 19.5696 34.7912 19.6193 34.8409C19.6691 34.8907 19.7282 34.9302 19.7932 34.9571C19.8582 34.984 19.9279 34.9979 19.9982 34.9979C20.0686 34.9979 20.1383 34.984 20.2033 34.9571C20.2683 34.9302 20.3274 34.8907 20.3771 34.8409C20.4269 34.7912 20.4664 34.7321 20.4933 34.6671C20.5202 34.602 20.5341 34.5324 20.5341 34.462V25.8924C20.5355 25.816 20.5205 25.7403 20.4902 25.6702C20.4599 25.6001 20.415 25.5373 20.3584 25.486C20.3019 25.4347 20.235 25.3961 20.1623 25.3727C20.0896 25.3494 20.0128 25.3418 19.9369 25.3506Z" fill="#E9E9FF"/>
<path d="M11.043 25.3545L10.9204 25.7223L10.2798 27.6442L10.5131 27.8775C10.5131 27.8775 10.7231 28.0794 11.0549 28.2453C11.3866 28.4111 11.8733 28.5696 12.4983 28.5696C13.1233 28.5696 13.6139 28.4112 13.9457 28.2453C14.2774 28.0795 14.4875 27.8775 14.4875 27.8775L14.7208 27.6442L13.9575 25.3545H11.043Z" fill="#328330"/>
<path d="M26.0429 25.3545L25.2796 27.6442L25.5129 27.8775C25.5129 27.8775 25.723 28.0794 26.0547 28.2453C26.3865 28.4111 26.8732 28.5696 27.4982 28.5696C28.1232 28.5696 28.6138 28.4112 28.9456 28.2453C29.2773 28.0795 29.4873 27.8775 29.4873 27.8775L29.7207 27.6442L28.9574 25.3545H28.5699H26.0429Z" fill="#E87E23"/>
<path d="M18.5409 23.215L18.4183 23.5788L17.7816 25.5007L18.015 25.7341C18.015 25.7341 18.225 25.9359 18.5568 26.1018C18.8885 26.2677 19.3752 26.4261 20.0002 26.4261C20.6252 26.4261 21.1119 26.2678 21.4436 26.1018C21.7754 25.936 21.9854 25.7341 21.9854 25.7341L22.2187 25.5007L21.4594 23.215H18.5409Z" fill="#E83733"/>
<path d="M12.4999 7.14185C8.37443 7.14185 4.99979 10.4622 4.99979 15.7134C4.99979 18.339 5.80377 20.9701 7.12802 22.9832C8.45227 24.9964 10.3377 26.4277 12.4999 26.4277C14.5924 26.4277 16.423 25.0801 17.7367 23.1737C17.777 23.1153 17.8053 23.0495 17.82 22.9801C17.8347 22.9107 17.8354 22.839 17.8222 22.7693C17.8089 22.6996 17.782 22.6333 17.7429 22.5741C17.7038 22.5149 17.6533 22.464 17.5944 22.4245C15.3088 20.8886 13.5713 17.1796 13.5713 13.5704C13.5713 11.3813 14.1905 9.64132 15.1764 8.38699C15.2291 8.31986 15.265 8.24107 15.2811 8.15726C15.2972 8.07344 15.2931 7.98704 15.269 7.90515C15.2449 7.82326 15.2017 7.74826 15.1428 7.68647C15.0839 7.62469 15.0111 7.57787 14.9305 7.54991C14.1677 7.28568 13.3505 7.14185 12.4999 7.14185Z" fill="#44A142"/>
<path d="M27.4981 7.14343C26.6475 7.14343 25.8328 7.28657 25.07 7.55076C24.9892 7.57873 24.9163 7.62565 24.8573 7.68756C24.7983 7.74948 24.755 7.82461 24.731 7.90667C24.707 7.98874 24.703 8.07534 24.7193 8.15928C24.7357 8.24321 24.7718 8.32204 24.8248 8.38914C25.8107 9.64346 26.4304 11.3806 26.4304 13.5697C26.4304 17.1788 24.6902 20.8882 22.4046 22.4241C22.3459 22.4636 22.2957 22.5144 22.2567 22.5734C22.2178 22.6325 22.1909 22.6986 22.1777 22.7681C22.1645 22.8376 22.1651 22.909 22.1796 22.9783C22.1941 23.0475 22.2222 23.1132 22.2622 23.1715C23.576 25.0779 25.4056 26.4262 27.4981 26.4262C29.6603 26.4262 31.5482 24.9948 32.8725 22.9817C34.1967 20.9685 35.0001 18.3387 35.0001 15.7131C35.0001 10.4619 31.6236 7.14343 27.4981 7.14343Z" fill="#FF8A26"/>
<path d="M13.7052 7.24121C12.303 8.72976 11.4263 10.8975 11.4263 13.5694C11.4263 16.195 12.2303 18.8292 13.5546 20.8424C14.4982 22.2769 15.729 23.4126 17.1403 23.9489C17.348 23.702 17.5494 23.4455 17.7367 23.1736C17.777 23.1152 17.8053 23.0494 17.82 22.98C17.8347 22.9106 17.8354 22.839 17.8222 22.7693C17.8089 22.6996 17.782 22.6332 17.7429 22.574C17.7038 22.5148 17.6533 22.464 17.5944 22.4244C15.3088 20.8885 13.5713 17.1795 13.5713 13.5704C13.5713 11.3813 14.1905 9.64126 15.1764 8.38694C15.2291 8.31981 15.265 8.24101 15.2811 8.1572C15.2972 8.07338 15.2931 7.98698 15.269 7.90509C15.2449 7.8232 15.2017 7.7482 15.1428 7.68641C15.0839 7.62463 15.0111 7.57782 14.9305 7.54986C14.5358 7.41318 14.1261 7.31021 13.7052 7.24121Z" fill="#E8BD46"/>
<path d="M19.9999 5C15.8745 5 12.4978 8.31822 12.4978 13.5694C12.4978 16.195 13.3017 18.8292 14.626 20.8424C15.9502 22.8555 17.8377 24.2869 19.9999 24.2869C22.1621 24.2869 24.0465 22.8555 25.3707 20.8424C26.695 18.8292 27.4979 16.195 27.4979 13.5694C27.4979 8.31822 24.1253 5 19.9999 5Z" fill="#FF3C38"/>
<path d="M18.3708 7.37303C18.3227 7.37569 18.2752 7.38487 18.2295 7.40022C16.5097 7.94219 15.1955 9.4193 14.7881 11.7686C14.7754 11.8382 14.7765 11.9097 14.7915 11.9789C14.8065 12.0481 14.8351 12.1136 14.8756 12.1717C14.9161 12.2298 14.9677 12.2793 15.0274 12.3173C15.0872 12.3553 15.1538 12.3811 15.2236 12.3932C15.2934 12.4053 15.3648 12.4035 15.4339 12.3878C15.5029 12.3721 15.5682 12.3428 15.6258 12.3018C15.6835 12.2607 15.7325 12.2086 15.7699 12.1485C15.8073 12.0884 15.8325 12.0215 15.8439 11.9516C16.2011 9.89174 17.1929 8.84957 18.5518 8.42132C18.6774 8.38381 18.7848 8.30162 18.8539 8.19022C18.9229 8.07882 18.9487 7.94596 18.9264 7.81681C18.9041 7.68767 18.8353 7.57119 18.7329 7.48938C18.6305 7.40758 18.5017 7.36626 18.3708 7.37303Z" fill="#FF5F5C"/>
<path d="M19.9999 5C19.6353 5 19.2796 5.0348 18.9285 5.08583C22.5493 5.61065 25.355 8.78238 25.355 13.5695C25.355 16.1951 24.5521 18.8293 23.2278 20.8424C22.1276 22.5151 20.6401 23.7824 18.9285 24.1645C19.2771 24.2423 19.6342 24.287 19.9999 24.287C22.1621 24.287 24.0465 22.8557 25.3707 20.8426C26.695 18.8294 27.4979 16.1951 27.4979 13.5695C27.4979 8.31835 24.1253 5 19.9999 5Z" fill="#E83733"/>
<path d="M27.5021 7.13916C27.1375 7.13916 26.7817 7.17403 26.4306 7.22505C30.0515 7.74987 32.8572 10.9215 32.8572 15.7086C32.8572 18.3342 32.0542 20.9685 30.73 22.9817C29.6297 24.6543 28.1423 25.9216 26.4306 26.3037C26.7793 26.3815 27.1363 26.4263 27.5021 26.4263C29.6643 26.4263 31.5486 24.9949 32.8729 22.9817C34.1971 20.9686 35.0001 18.3343 35.0001 15.7087C35.0001 10.4575 31.6275 7.13916 27.5021 7.13916Z" fill="#E87E23"/>
</g>
<defs>
<clipPath id="clip0_279_19">
<rect width="40" height="40" fill="white"/>
</clipPath>
</defs>
</svg>
