<svg width="40" height="40" viewBox="0 0 40 40" fill="none" xmlns="http://www.w3.org/2000/svg">
<g clip-path="url(#clip0_279_109)">
<path d="M40 20C40 22.9249 39.3723 25.7037 38.2433 28.2081C37.1714 30.5885 35.6457 32.7216 33.7788 34.4963C31.4148 36.7444 28.5013 38.4195 25.2605 39.3012C24.698 39.4538 24.1249 39.5828 23.5429 39.6873C22.3927 39.893 21.209 40 20 40C19.2449 40 18.4996 39.9584 17.7666 39.8759C17.3241 39.8278 16.8858 39.7641 16.4531 39.6857C15.2115 39.4645 14.0091 39.1273 12.858 38.6865C12.4605 38.5355 12.0687 38.3705 11.6841 38.1942C11.4009 38.0645 11.1209 37.9281 10.8449 37.7861C10.6009 37.6604 10.36 37.5298 10.1216 37.3934C9.74938 37.182 9.38453 36.9584 9.02773 36.7241C8.06445 36.0906 7.15836 35.3763 6.32078 34.5894C6.28813 34.5591 6.25547 34.5281 6.22281 34.4971C4.35258 32.7191 2.82609 30.5845 1.75258 28.2008C0.626953 25.6987 0 22.9224 0 20C0 8.9543 8.9543 0 20 0C31.0457 0 40 8.9543 40 20Z" fill="white"/>
<path d="M32.9162 30.7928H7.3043C6.29564 30.7928 5.47791 29.9751 5.47791 28.9664V13.3961C5.47791 12.3874 6.29564 11.5697 7.3043 11.5697H32.9163C33.9249 11.5697 34.7426 12.3874 34.7426 13.3961V28.9664C34.7426 29.9752 33.9248 30.7928 32.9162 30.7928Z" fill="#FCF8F2"/>
<path d="M32.4813 11.5472H20.1172V16.9624H34.7397V13.8057C34.7397 12.5584 33.7286 11.5472 32.4813 11.5472Z" fill="#34ABE0"/>
<path d="M7.60761 11.5472H19.9716V16.9624H5.34918V13.8057C5.34918 12.5584 6.3603 11.5472 7.60761 11.5472Z" fill="#FF525D"/>
<path d="M32.9165 11.0924H7.30415C6.03377 11.0924 4.99994 12.1255 4.99994 13.3959V28.9662C4.99994 30.2366 6.03377 31.2704 7.30415 31.2704H32.9164C34.1868 31.2704 35.2199 30.2366 35.2199 28.9662V13.3959C35.22 12.1255 34.1868 11.0924 32.9165 11.0924ZM34.2647 28.9662C34.2647 29.7105 33.66 30.3152 32.9165 30.3152H7.30415C6.5606 30.3152 5.95515 29.7104 5.95515 28.9662V13.3959C5.95515 12.6524 6.5606 12.0476 7.30415 12.0476H32.9164C33.6599 12.0476 34.2647 12.6524 34.2647 13.3959V28.9662H34.2647Z" fill="#FFD15C"/>
<path d="M20.111 16.52H5.47827V17.4752H20.111V16.52Z" fill="#FFD15C"/>
<path d="M20.5879 11.5699H19.6327V30.7927H20.5879V11.5699Z" fill="#FFD15C"/>
<path d="M13.344 28.1964H12.2447C11.1021 28.1964 10.1725 27.2668 10.1725 26.1242V21.6435C10.1725 20.5009 11.1021 19.5713 12.2447 19.5713H13.344C14.4866 19.5713 15.4162 20.5009 15.4162 21.6435V26.1242C15.4162 27.2668 14.4866 28.1964 13.344 28.1964ZM12.2447 20.5264C11.6288 20.5264 11.1276 21.0275 11.1276 21.6434V26.1241C11.1276 26.74 11.6287 27.2412 12.2447 27.2412H13.344C13.9599 27.2412 14.4611 26.7401 14.4611 26.1241V21.6434C14.4611 21.0275 13.96 20.5264 13.344 20.5264H12.2447Z" fill="#FF525D"/>
<path d="M34.7497 16.5201H20.117V17.4754H34.7497V16.5201Z" fill="#FFD15C"/>
<path d="M27.983 28.1964H26.8837C25.7411 28.1964 24.8115 27.2668 24.8115 26.1242V21.6435C24.8115 20.5009 25.7411 19.5713 26.8837 19.5713H27.983C29.1256 19.5713 30.0552 20.5009 30.0552 21.6435V26.1242C30.0553 27.2668 29.1256 28.1964 27.983 28.1964ZM26.8838 20.5264C26.2678 20.5264 25.7667 21.0275 25.7667 21.6434V26.1241C25.7667 26.74 26.2678 27.2412 26.8838 27.2412H27.9831C28.599 27.2412 29.1001 26.7401 29.1001 26.1241V21.6434C29.1001 21.0275 28.599 20.5264 27.9831 20.5264H26.8838Z" fill="#34ABE0"/>
<path d="M10.3196 8.75H9.36438V11.3891H10.3196V8.75Z" fill="#FFD15C"/>
<path d="M30.8554 8.75H29.9001V11.3891H30.8554V8.75Z" fill="#FFD15C"/>
</g>
<defs>
<clipPath id="clip0_279_109">
<rect width="40" height="40" fill="white"/>
</clipPath>
</defs>
</svg>
