<svg width="30" height="31" viewBox="0 0 30 31" fill="none" xmlns="http://www.w3.org/2000/svg">
<rect y="0.5" width="30" height="30" rx="15" fill="url(#paint0_linear_667_2240)"/>
<path d="M15 7.10599C17.733 7.10599 18.057 7.11499 19.137 7.16599C20.136 7.21099 20.679 7.37899 21.039 7.51999C21.516 7.70599 21.858 7.92799 22.215 8.28499C22.572 8.64199 22.794 8.98399 22.98 9.46099C23.121 9.82099 23.286 10.364 23.334 11.363C23.382 12.443 23.394 12.767 23.394 15.5C23.394 18.233 23.385 18.557 23.334 19.637C23.289 20.636 23.121 21.179 22.98 21.539C22.794 22.016 22.572 22.358 22.215 22.715C21.858 23.072 21.516 23.294 21.039 23.48C20.679 23.621 20.136 23.786 19.137 23.834C18.057 23.882 17.733 23.894 15 23.894C12.267 23.894 11.943 23.885 10.863 23.834C9.864 23.789 9.321 23.621 8.961 23.48C8.484 23.294 8.142 23.072 7.785 22.715C7.428 22.358 7.206 22.016 7.02 21.539C6.879 21.179 6.714 20.636 6.666 19.637C6.618 18.557 6.606 18.233 6.606 15.5C6.606 12.767 6.615 12.443 6.666 11.363C6.711 10.364 6.879 9.82099 7.02 9.46099C7.206 8.98399 7.428 8.64199 7.785 8.28499C8.142 7.92799 8.484 7.70599 8.961 7.51999C9.321 7.37899 9.864 7.21399 10.863 7.16599C11.943 7.11499 12.267 7.10599 15 7.10599ZM15 5.26099C12.219 5.26099 11.871 5.27299 10.779 5.32399C9.68999 5.37499 8.946 5.54599 8.292 5.80099C7.62 6.05899 7.047 6.40999 6.48 6.97999C5.91 7.54999 5.562 8.11999 5.298 8.79499C5.046 9.44599 4.872 10.19 4.821 11.282C4.77 12.374 4.758 12.722 4.758 15.503C4.758 18.284 4.77 18.632 4.821 19.724C4.872 20.813 5.043 21.557 5.298 22.211C5.559 22.88 5.91 23.453 6.48 24.02C7.05 24.59 7.62 24.938 8.295 25.202C8.946 25.454 9.69 25.628 10.782 25.679C11.874 25.73 12.222 25.742 15.003 25.742C17.784 25.742 18.132 25.73 19.224 25.679C20.313 25.628 21.057 25.457 21.711 25.202C22.38 24.941 22.953 24.59 23.52 24.02C24.09 23.45 24.438 22.88 24.702 22.205C24.954 21.554 25.128 20.81 25.179 19.718C25.23 18.626 25.242 18.278 25.242 15.497C25.242 12.716 25.23 12.368 25.179 11.276C25.128 10.187 24.957 9.44299 24.702 8.78899C24.441 8.11999 24.09 7.54699 23.52 6.97999C22.95 6.40999 22.38 6.06199 21.705 5.79799C21.054 5.54599 20.31 5.37199 19.218 5.32099C18.129 5.27299 17.781 5.26099 15 5.26099Z" fill="white"/>
<path d="M15 10.241C12.096 10.241 9.74097 12.596 9.74097 15.5C9.74097 18.404 12.096 20.759 15 20.759C17.904 20.759 20.259 18.404 20.259 15.5C20.259 12.596 17.904 10.241 15 10.241ZM15 18.914C13.116 18.914 11.586 17.387 11.586 15.5C11.586 13.613 13.116 12.086 15 12.086C16.884 12.086 18.414 13.613 18.414 15.5C18.414 17.387 16.884 18.914 15 18.914Z" fill="white"/>
<path d="M20.466 11.264C21.1453 11.264 21.696 10.7133 21.696 10.034C21.696 9.35468 21.1453 8.80399 20.466 8.80399C19.7867 8.80399 19.236 9.35468 19.236 10.034C19.236 10.7133 19.7867 11.264 20.466 11.264Z" fill="white"/>
<defs>
<linearGradient id="paint0_linear_667_2240" x1="4.39339" y1="26.1066" x2="25.6066" y2="4.89339" gradientUnits="userSpaceOnUse">
<stop stop-color="#FFD521"/>
<stop offset="0.0551048" stop-color="#FFD020"/>
<stop offset="0.1241" stop-color="#FEC01E"/>
<stop offset="0.2004" stop-color="#FCA71B"/>
<stop offset="0.2821" stop-color="#FA8316"/>
<stop offset="0.3681" stop-color="#F85510"/>
<stop offset="0.4563" stop-color="#F51E09"/>
<stop offset="0.5" stop-color="#F30005"/>
<stop offset="0.5035" stop-color="#F20007"/>
<stop offset="0.5966" stop-color="#E1003B"/>
<stop offset="0.6879" stop-color="#D30067"/>
<stop offset="0.7757" stop-color="#C70088"/>
<stop offset="0.8589" stop-color="#BF00A0"/>
<stop offset="0.9357" stop-color="#BB00AF"/>
<stop offset="1" stop-color="#B900B4"/>
</linearGradient>
</defs>
</svg>
