<svg width="40" height="40" viewBox="0 0 40 40" fill="none" xmlns="http://www.w3.org/2000/svg">
<g clip-path="url(#clip0_468_8197)">
<mask id="mask0_468_8197" style="mask-type:luminance" maskUnits="userSpaceOnUse" x="0" y="0" width="40" height="40">
<path d="M20 40C31.0457 40 40 31.0457 40 20C40 8.95431 31.0457 0 20 0C8.95431 0 0 8.95431 0 20C0 31.0457 8.95431 40 20 40Z" fill="white"/>
</mask>
<g mask="url(#mask0_468_8197)">
<path d="M20 40C31.0457 40 40 31.0457 40 20C40 8.95431 31.0457 0 20 0C8.95431 0 0 8.95431 0 20C0 31.0457 8.95431 40 20 40Z" fill="#65C835"/>
</g>
<mask id="mask1_468_8197" style="mask-type:luminance" maskUnits="userSpaceOnUse" x="0" y="0" width="40" height="40">
<path d="M20 40C31.0457 40 40 31.0457 40 20C40 8.95431 31.0457 0 20 0C8.95431 0 0 8.95431 0 20C0 31.0457 8.95431 40 20 40Z" fill="white"/>
</mask>
<g mask="url(#mask1_468_8197)">
<path d="M11.2304 40.7253C11.5139 40.2806 11.815 39.8473 12.1329 39.4278C14.2509 36.6312 16.539 35.1592 16.5808 35.1327C17.4644 34.5774 17.7321 33.4115 17.1787 32.5261C16.6244 31.6391 15.456 31.3698 14.5692 31.9237C14.4554 31.9948 11.7535 33.7034 9.21174 37.0126C8.33096 38.1594 7.55459 39.41 6.89929 40.7251H11.2304V40.7253Z" fill="#FFB37F"/>
<path d="M22.6605 35.0732C22.7019 35.0997 24.99 36.5717 27.1082 39.3682C27.441 39.808 27.7534 40.2611 28.0462 40.7255H32.3508C31.7119 39.4038 30.9413 38.1402 30.0294 36.9532C27.4876 33.6441 24.7855 31.9355 24.6717 31.8644C23.7851 31.3103 22.6167 31.5795 22.0624 32.4665C21.5092 33.352 21.7769 34.5178 22.6605 35.0732Z" fill="#FFC695"/>
<path d="M28.0368 40.7253C27.6029 35.3608 26.4473 33.7182 25.4589 32.6401C24.5239 31.6203 21.3403 30.0804 19.6693 30.529C17.9985 30.0804 14.8148 31.6203 13.8798 32.6401C12.8912 33.7182 11.7356 35.3608 11.3018 40.7253H28.0368Z" fill="#F29555"/>
<path d="M31.4502 23.7244C32.8689 23.5503 33.8434 21.9786 33.6269 20.2139C33.4103 18.4493 32.0847 17.1598 30.666 17.3339C29.2474 17.508 28.2728 19.0797 28.4894 20.8444C28.7059 22.609 30.0315 23.8985 31.4502 23.7244Z" fill="#FFB37F"/>
<path d="M8.32767 23.7525C9.75664 23.7272 10.8895 22.2658 10.8581 20.4883C10.8266 18.7108 9.64268 17.2904 8.21372 17.3157C6.78475 17.341 5.65185 18.8024 5.68332 20.5799C5.71479 22.3574 6.8987 23.7778 8.32767 23.7525Z" fill="#F29555"/>
<path d="M11.2331 40.7254C11.5165 40.281 11.8154 39.8469 12.1329 39.4278C14.2509 36.6313 16.539 35.1592 16.5808 35.1328C16.6118 35.1136 16.64 35.0916 16.6694 35.0706C15.5213 34.4551 14.9773 33.078 14.4607 31.8761C13.5533 32.5233 10.9577 34.3032 9.02212 36.8234C8.47999 37.5293 7.97842 38.275 7.51892 39.0501C8.19792 39.5567 8.95806 40.1503 9.68318 40.7254H11.2331Z" fill="#C6DFE0"/>
<path d="M27.1084 39.368C27.4412 39.8078 27.7534 40.2609 28.0457 40.7253H31.9237C32.1071 40.6081 32.2893 40.4939 32.4658 40.3867C31.8413 39.1192 31.0961 37.9058 30.2187 36.7639C27.7288 33.522 24.8973 32.007 24.6836 31.8719C24.2608 33.0947 23.427 34.1384 22.3528 34.8323C22.4452 34.9212 22.5477 35.0023 22.6605 35.0732C22.7019 35.0997 24.9902 36.5717 27.1084 39.368Z" fill="#C6DFE0"/>
<path d="M28.2084 40.7253C27.8219 35.1396 26.46 33.7327 25.4588 32.6401C25.1437 32.2963 24.5727 31.8936 23.8907 31.5279C22.8434 32.8547 21.2257 33.719 19.4358 33.719C17.7274 33.719 16.1762 32.9316 15.1278 31.7066C14.5884 32.0215 14.1441 32.3514 13.8797 32.6401C12.8781 33.7327 11.6029 35.1396 11.2013 40.7253H28.2084Z" fill="#E1F7F9"/>
<path d="M19.8599 8.62183C17.0021 8.75442 14.0363 9.54211 11.907 10.9956C8.76931 13.1374 8.44583 17.6002 8.07387 21.0313C7.68099 24.6535 7.8817 28.3432 11.1924 30.4993C13.5008 32.0027 17.149 31.9592 19.8601 32.1776L19.8599 8.62183Z" fill="#FFC695"/>
<path d="M19.6677 8.62183C22.5259 8.75442 25.3019 9.54211 27.4314 10.9956C30.5689 13.1372 30.8924 17.6 31.2646 21.0313C31.6572 24.6535 31.4569 28.3432 28.1463 30.4993C25.8379 32.0027 22.3786 31.9592 19.6677 32.1776V8.62183Z" fill="#FFC695"/>
<path d="M19.6693 4.99599C18.8487 4.94816 7.69749 5.65107 8.14481 17.3164C8.14481 17.3164 9.36552 19.9562 9.3668 19.9588C9.11442 18.4438 10.936 16.6219 11.5503 16.04C14.53 13.2168 17.217 16.2426 20.0175 17.4981C22.1651 18.4611 24.6834 19.1316 26.9879 18.3215C27.551 18.1236 28.2358 17.7375 28.8048 17.2473C29.8005 18.6905 29.9717 19.9588 29.9717 19.9588L31.1937 17.3164C31.6408 5.65129 20.4894 4.94837 19.6693 4.99599Z" fill="#74320A"/>
<path d="M13.9647 23.0468C14.6431 23.0468 15.1931 22.4968 15.1931 21.8184C15.1931 21.1399 14.6431 20.59 13.9647 20.59C13.2863 20.59 12.7363 21.1399 12.7363 21.8184C12.7363 22.4968 13.2863 23.0468 13.9647 23.0468Z" fill="#333331"/>
<path d="M25.3734 23.0468C26.0518 23.0468 26.6018 22.4968 26.6018 21.8184C26.6018 21.1399 26.0518 20.59 25.3734 20.59C24.695 20.59 24.145 21.1399 24.145 21.8184C24.145 22.4968 24.695 23.0468 25.3734 23.0468Z" fill="#333331"/>
<path d="M21.8152 24.5036C21.8152 25.1657 21.2784 25.703 20.616 25.703H18.7223C18.06 25.703 17.5229 25.1657 17.5229 24.5036C17.5229 23.8411 18.06 23.3043 18.7223 23.3043H20.616C21.2784 23.3043 21.8152 23.8411 21.8152 24.5036Z" fill="#F29555"/>
<path d="M22.2328 26.9064C21.9223 26.8677 21.6407 27.086 21.5995 27.3947C21.5773 27.542 21.3471 28.7158 19.6693 28.7956C17.9914 28.7158 17.7612 27.5423 17.739 27.3947C17.6978 27.0862 17.416 26.8677 17.1057 26.9064C16.7944 26.9455 16.5736 27.2292 16.6125 27.5408C16.7154 28.362 17.4886 29.8336 19.6379 29.9269V29.9314C19.6488 29.9311 19.6586 29.9294 19.6695 29.9288C19.6804 29.9294 19.6902 29.9309 19.7011 29.9314V29.9269C21.8502 29.8336 22.6235 28.362 22.7263 27.5408C22.7649 27.2292 22.5441 26.9455 22.2328 26.9064Z" fill="#F29555"/>
</g>
</g>
<defs>
<clipPath id="clip0_468_8197">
<rect width="40" height="40" fill="white"/>
</clipPath>
</defs>
</svg>
