<svg width="40" height="40" viewBox="0 0 40 40" fill="none" xmlns="http://www.w3.org/2000/svg">
<g clip-path="url(#clip0_292_396)">
<path d="M40 20C40 31.0458 31.0458 40 20 40C8.95416 40 0 31.0458 0 20C0 8.95416 8.95416 0 20 0C31.0458 0 40 8.95416 40 20Z" fill="#FFF844"/>
<path d="M20 19.1608V26.5726L24.8172 28.5577L29.0521 22.876L27.7426 19.1608H20Z" fill="#61D782"/>
<path d="M20 30.7812H21.1472L24.8172 28.5577L20 26.6763V30.7812Z" fill="#61D782"/>
<path d="M24.8172 27.1112L20 25.629V27.1426L23.6597 28.2687L21.1472 30.7812H23.1924L29.5905 24.3832L29.0521 22.876L24.8172 27.1112Z" fill="#FFDA2D"/>
<path d="M25.2442 29.4545L29.8544 23.2693L28.4288 19.2249H11.5715L10.1572 23.2377L25.2442 29.4545Z" fill="#61D782"/>
<path d="M21.2488 31.875L25.244 29.4545L13.7012 24.9463L14.4885 31.875H21.2488Z" fill="#61D782"/>
<path d="M13.7012 24.9463L9.62692 24.7224L7.07251 31.875H12.9139L13.7012 24.9463Z" fill="#61D782"/>
<path d="M23.4753 31.875H32.9276L30.4403 24.9101L28.6609 25.5762L23.4753 31.875Z" fill="#61D782"/>
<path d="M23.4754 31.875L30.4403 24.91L29.8543 23.2692L25.2441 27.8797L10.1572 23.2377L9.62695 24.7223L12.9139 25.7336V31.875H14.4886V26.2183L23.984 29.1398L21.2489 31.875H23.4754Z" fill="white"/>
<path d="M20 5C16.0948 5 12.9138 8.18097 12.9138 12.0862C12.9138 13.4247 13.2919 14.7316 14.0477 15.9283L20 23.6656L25.9995 15.8655C26.7081 14.7316 27.0862 13.4247 27.0862 12.0862C27.0862 8.18097 23.9052 5 20 5ZM20 15.2356C18.2678 15.2356 16.8506 13.8184 16.8506 12.0862C16.8506 10.354 18.2678 8.93677 20 8.93677C21.7322 8.93677 23.1494 10.354 23.1494 12.0862C23.1494 13.8184 21.7322 15.2356 20 15.2356Z" fill="#FA5D0F"/>
<path d="M27.0862 12.0862C27.0862 13.4247 26.7081 14.7316 25.9995 15.8655L20 23.6656V15.2356C21.7322 15.2356 23.1494 13.8184 23.1494 12.0862C23.1494 10.354 21.7322 8.93677 20 8.93677V5C23.9052 5 27.0862 8.18097 27.0862 12.0862Z" fill="#FA5D0F"/>
</g>
<defs>
<clipPath id="clip0_292_396">
<rect width="40" height="40" fill="white"/>
</clipPath>
</defs>
</svg>
