<svg width="40" height="40" viewBox="0 0 40 40" fill="none" xmlns="http://www.w3.org/2000/svg">
<rect width="40" height="40" rx="20" fill="#FC5D66"/>
<path d="M15.7051 6.76328L10.9685 7.5582L8.74272 11.8145L5.38124 15.244L6.0814 19.9948L5.37671 24.746L8.73882 28.1758L10.9569 32.4374L15.695 33.2326L20 35.3775L22.8216 20.3717L20 4.6225L15.7051 6.76328Z" fill="#FEDF4F"/>
<path d="M34.6233 15.254L31.2612 11.8242L29.0431 7.56258L24.305 6.7675L20 4.6225V35.3775L24.2949 33.2367L29.0315 32.4417L31.2573 28.1855L34.6187 24.756L33.9186 20.0052L34.6233 15.254Z" fill="#FEDF4F"/>
<path d="M10.7084 20.0175C10.7084 25.1408 14.8766 29.309 20 29.309L22.8217 20.0174L20 10.7258C14.8767 10.7258 10.7084 14.894 10.7084 20.0175Z" fill="#FAF6FF"/>
<path d="M20 10.7258V29.309C25.1234 29.309 29.2916 25.1408 29.2916 20.0175C29.2916 14.894 25.1234 10.7258 20 10.7258Z" fill="#FAF6FF"/>
<path d="M18.8943 20.5137L17.3742 18.9937L15.7169 20.651L18.8943 23.8283L20 22.7225L21.1586 20.9278L20 19.408L18.8943 20.5137Z" fill="#59C36A"/>
<path d="M23.0957 16.3123L20 19.408V22.7226L24.753 17.9695L23.0957 16.3123Z" fill="#59C36A"/>
</svg>
