<svg width="40" height="40" viewBox="0 0 40 40" fill="none" xmlns="http://www.w3.org/2000/svg">
<g clip-path="url(#clip0_713_2585)">
<path d="M20 40C14.6578 40 9.63539 37.9196 5.85781 34.1422C2.08039 30.3646 0 25.3422 0 20C0 14.6578 2.08039 9.63539 5.85781 5.85781C9.63539 2.08039 14.6578 0 20 0C25.3422 0 30.3646 2.08039 34.1422 5.85781C37.9196 9.63539 40 14.6578 40 20C40 25.3422 37.9196 30.3646 34.1422 34.1422C30.3646 37.9196 25.3422 40 20 40Z" fill="#145481"/>
<path d="M20 0V40C25.3422 40 30.3646 37.9196 34.1422 34.1422C37.9196 30.3646 40 25.3422 40 20C40 14.6578 37.9196 9.63539 34.1422 5.85781C30.3646 2.08039 25.3422 0 20 0Z" fill="#002659"/>
<path d="M20 20C17.3633 20 14.7266 20 14.7266 20V18.4375C14.7266 17.143 13.6773 16.0938 12.3828 16.0938C11.0884 16.0938 10.0391 17.143 10.0391 18.4375V20H4.76562C4.76562 28.4002 11.5998 35.2344 20 35.2344L22.5 27.6562L20 20Z" fill="#FFF48B"/>
<path d="M27.6562 18.125L20 20V25.2734H18.4375C17.143 25.2734 16.0938 26.3227 16.0938 27.6172C16.0938 28.9116 17.143 29.9609 18.4375 29.9609H20V35.2344C28.4002 35.2344 35.2344 28.4002 35.2344 20L27.6562 18.125Z" fill="#FFF48B"/>
<path d="M20 35.2344C28.4002 35.2344 35.2344 28.4002 35.2344 20L27.6562 18.125L20 20V25.2734V29.9609V35.2344Z" fill="#FF9F22"/>
<path d="M20 4.76562L18.125 13.125L20 20H25.2734V21.5625C25.2734 22.857 26.3227 23.9062 27.6172 23.9062C28.9116 23.9062 29.9609 22.857 29.9609 21.5625V20H35.2344C35.2344 11.5998 28.4002 4.76562 20 4.76562Z" fill="#00B9A0"/>
<path d="M11.7188 22.5L20 20V14.7266H21.5625C22.857 14.7266 23.9062 13.6773 23.9062 12.3828C23.9062 11.0884 22.857 10.0391 21.5625 10.0391H20V4.76562C11.5998 4.76562 4.76562 11.5998 4.76562 20L11.7188 22.5Z" fill="#FF6C6C"/>
<path d="M21.5625 10.0391H20V14.7266H21.5625C22.857 14.7266 23.9062 13.6773 23.9062 12.3828C23.9062 11.0884 22.857 10.0391 21.5625 10.0391Z" fill="#FF405C"/>
<path d="M20 24.5312V20C17.3633 20 14.7266 20 14.7266 20V18.4375C14.7266 17.143 13.6773 16.0938 12.3828 16.0938C11.0884 16.0938 10.0391 17.143 10.0391 18.4375V20H4.76562C4.76562 22.873 5.56508 25.5628 6.95312 27.8587" fill="#FFF48B"/>
</g>
<defs>
<clipPath id="clip0_713_2585">
<rect width="40" height="40" fill="white"/>
</clipPath>
</defs>
</svg>
