<svg width="40" height="40" viewBox="0 0 40 40" fill="none" xmlns="http://www.w3.org/2000/svg">
<g clip-path="url(#clip0_279_129)">
<path d="M20 40C31.0457 40 40 31.0457 40 20C40 8.9543 31.0457 0 20 0C8.9543 0 0 8.9543 0 20C0 31.0457 8.9543 40 20 40Z" fill="#1B2A5B"/>
<path d="M26.6666 12.7946H24.9535C24.7031 10.4763 22.8568 8.63014 20.5387 8.37975V6.66663H19.4613V8.37975C17.143 8.63014 15.2968 10.4765 15.0464 12.7946H13.3333V13.872H15.0464C15.2968 16.1903 17.1431 18.0365 19.4613 18.2869V20H20.5387V18.2869C22.857 18.0365 24.7031 16.1901 24.9535 13.872H26.6666V12.7946ZM20.5387 17.2011V15.5555H19.4613V17.2011C17.7381 16.9622 16.3713 15.5953 16.1323 13.8721H17.7778V12.7947H16.1323C16.3712 11.0715 17.738 9.70467 19.4613 9.46561V11.1112H20.5387V9.46561C22.262 9.70452 23.6287 11.0714 23.8677 12.7947H22.2222V13.8721H23.8677C23.6287 15.5953 22.262 16.962 20.5387 17.2011Z" fill="#71E2EF"/>
<path d="M24.9535 12.7946C24.7031 10.4763 22.8568 8.63014 20.5387 8.37975V6.66663H19.9551V11.1111H20.5387V9.46561C22.2619 9.70452 23.6287 11.0714 23.8677 12.7947H22.2221V13.8721H23.8677C23.6288 15.5953 22.2619 16.9621 20.5387 17.2011V15.5555H19.9551V20H20.5387V18.2869C22.857 18.0365 24.7031 16.1901 24.9535 13.872H26.6666V12.7946H24.9535Z" fill="#38C6D9"/>
<path d="M6.65969 29.7637L14.5804 28.1796C14.9724 28.1012 15.2546 27.7569 15.2546 27.3572V25.0442C15.2546 24.5811 14.8791 24.2056 14.4159 24.2056H6.49523C6.03203 24.2056 5.65656 24.581 5.65656 25.0442V28.9413C5.65656 29.4706 6.1407 29.8675 6.65969 29.7637Z" fill="#71E2EF"/>
<path d="M5.65656 26.2852V28.9415C5.65656 29.4706 6.1407 29.8677 6.65969 29.7638L14.5803 28.1797C14.9723 28.1013 15.2545 27.757 15.2545 27.3573V26.2852H5.65656Z" fill="#38C6D9"/>
<path d="M31.1552 27.4142H25.9488C25.7287 27.4142 25.5505 27.2359 25.5505 27.0158V25.8117C25.5505 25.5916 25.7287 25.4133 25.9488 25.4133H31.155C31.3751 25.4133 31.5534 25.5916 31.5534 25.8117V27.0158C31.5535 27.2358 31.3751 27.4142 31.1552 27.4142Z" fill="#FEE187"/>
<path d="M25.5505 26.2852V27.0158C25.5505 27.2359 25.7287 27.4141 25.9488 27.4141H31.155C31.3751 27.4141 31.5534 27.2359 31.5534 27.0158V26.2852H25.5505Z" fill="#FFC61B"/>
<path d="M35.1572 25.8679H25.9488C25.7287 25.8679 25.5505 25.6896 25.5505 25.4696V24.2654C25.5505 24.0453 25.7287 23.8671 25.9488 23.8671H35.1572C35.3773 23.8671 35.5555 24.0453 35.5555 24.2654V25.4696C35.5555 25.6895 35.3773 25.8679 35.1572 25.8679Z" fill="#38C6D9"/>
<path d="M22.3511 27.8654C22.3511 30.8852 24.7991 33.3333 27.819 33.3333V30.5993C26.3091 30.5993 25.085 29.3754 25.085 27.8654H22.3511V27.8654Z" fill="#71E2EF"/>
<path d="M19.0937 30.7815H17.1741C17.0255 30.7815 16.9048 30.6608 16.9048 30.5121C16.9048 30.3634 17.0255 30.2427 17.1741 30.2427H18.8244V28.5925C18.8244 28.4438 18.9451 28.3231 19.0937 28.3231C19.2424 28.3231 19.3631 28.4438 19.3631 28.5925V30.5121C19.3631 30.6608 19.2424 30.7815 19.0937 30.7815Z" fill="#71E2EF"/>
<path d="M16.8921 33.1007H15.5366C15.1399 33.1007 14.8183 32.779 14.8183 32.3824V28.0602C14.8183 27.6636 15.1399 27.3419 15.5366 27.3419H16.8921C17.2887 27.3419 17.6104 27.6636 17.6104 28.0602V32.3824C17.6104 32.7792 17.2887 33.1007 16.8921 33.1007Z" fill="#38C6D9"/>
<path d="M25.6047 29.2616H14.5021C13.8574 29.2616 13.3348 28.739 13.3348 28.0943V24.6701C13.3348 24.0254 13.8574 23.5028 14.5021 23.5028H25.6047C26.2494 23.5028 26.772 24.0254 26.772 24.6701V28.0943C26.772 28.7388 26.2495 29.2616 25.6047 29.2616Z" fill="#FFAD9E"/>
<path d="M13.3349 26.2852V28.0943C13.3349 28.739 13.8575 29.2616 14.5022 29.2616H25.6048C26.2495 29.2616 26.7721 28.739 26.7721 28.0943V26.2852H13.3349Z" fill="#FF6262"/>
</g>
<defs>
<clipPath id="clip0_279_129">
<rect width="40" height="40" fill="white"/>
</clipPath>
</defs>
</svg>
