<svg width="40" height="40" viewBox="0 0 40 40" fill="none" xmlns="http://www.w3.org/2000/svg">
<g clip-path="url(#clip0_292_344)">
<path d="M40 0H0V40H40V0Z" fill="#FC5D66"/>
<path d="M20.3578 5.00018C16.8871 7.5392 12.6193 9.05052 8 9.08418V16.2489C8 24.8041 13.0636 32.1789 20.3578 35.5355C27.651 32.1789 32.7137 24.8041 32.7137 16.2489V9.08391C28.0944 9.05065 23.8249 7.5392 20.3578 5.00018Z" fill="#CDD3DA"/>
<path d="M20.3578 5.00018C16.8871 7.5392 12.6193 9.05052 8 9.08418V16.2489C8 24.8041 13.0636 32.1789 20.3578 35.5355V5.00018Z" fill="white"/>
<path d="M20.3579 7.06464C17.153 9.16002 13.5153 10.4041 9.69849 10.7091V16.2486C9.69849 23.585 13.8566 30.3302 20.3579 33.6495C26.8581 30.3302 31.0145 23.585 31.0145 16.2486V10.7095C27.1988 10.4041 23.5617 9.16002 20.3579 7.06464Z" fill="#4BD6C0"/>
<path d="M10.1401 20.3573C11.3681 26.0308 15.0943 30.9638 20.3575 33.6499V20.3573H10.1401Z" fill="#2FB49E"/>
<path d="M30.5749 20.3572C30.8627 19.0219 31.0144 17.6469 31.0144 16.2489V10.7094C27.1987 10.4045 23.5612 9.15993 20.3578 7.06494V20.3572H30.5749Z" fill="#2FB49E"/>
<path d="M20.3568 7.06598V7.96811C23.3492 9.83628 26.7489 11.0144 30.253 11.4015V16.2487C30.253 17.6422 30.0914 19.0222 29.7818 20.3587H30.5728C30.6203 20.1466 30.6641 19.9312 30.701 19.7157C30.7178 19.6417 30.7276 19.5709 30.7377 19.4969C30.7612 19.3757 30.7815 19.2546 30.7949 19.1334C30.8656 18.6856 30.9161 18.2346 30.9535 17.7768C30.9602 17.6792 30.9666 17.5815 30.9737 17.484C30.9871 17.3023 30.994 17.1204 31.0007 16.9353C31.0108 16.7064 31.0141 16.4774 31.0141 16.2487V10.708C27.2 10.4051 23.5613 9.15965 20.3568 7.06598ZM10.9318 20.3585H10.1407C10.1845 20.5571 10.2283 20.7524 10.2788 20.9476C10.3226 21.126 10.3664 21.2976 10.4169 21.473C10.4505 21.5874 10.4842 21.702 10.5179 21.8163C10.5381 21.8938 10.5616 21.9749 10.5886 22.052C10.6188 22.1462 10.6492 22.2438 10.6795 22.3385C10.7265 22.4761 10.7737 22.6142 10.8242 22.7521C10.9252 23.0417 11.0329 23.3278 11.1507 23.6071C11.2113 23.7585 11.2719 23.91 11.3393 24.0581C11.3999 24.1994 11.4638 24.3408 11.5311 24.4823C11.595 24.6169 11.659 24.7519 11.7264 24.8862C12.0125 25.4685 12.3255 26.0341 12.6689 26.5793C12.7597 26.7241 12.8506 26.8689 12.9448 27.0102C12.9483 27.0136 12.9483 27.0169 12.9515 27.0169C13.0491 27.1684 13.1501 27.3199 13.2545 27.4646C13.4127 27.6901 13.5709 27.9089 13.7359 28.1244C13.8638 28.2927 13.995 28.4576 14.1297 28.6192C14.2609 28.7841 14.399 28.9461 14.537 29.1039C14.5539 29.1241 14.5707 29.1443 14.5875 29.1611C14.7256 29.316 14.8635 29.4707 15.0049 29.6189C15.1429 29.7667 15.2843 29.9118 15.4256 30.0565C15.7892 30.4234 16.1696 30.7735 16.5634 31.1101C16.6711 31.2014 16.7787 31.2918 16.8899 31.3794C16.9302 31.4165 16.9673 31.4467 17.0042 31.4737C17.1624 31.6049 17.324 31.7296 17.4889 31.8541C17.6572 31.982 17.8322 32.11 18.0072 32.2345C18.2092 32.3758 18.4112 32.5105 18.6165 32.6418C18.795 32.76 18.9734 32.874 19.1551 32.9818C19.1618 32.9855 19.1685 32.9889 19.1719 32.992C19.3638 33.1064 19.5556 33.2212 19.7509 33.3252C19.9494 33.4396 20.1514 33.5474 20.3568 33.6516V32.7899C15.5568 30.2077 12.1267 25.5928 10.9318 20.3585Z" fill="#0C9B8B"/>
<path d="M30.5728 20.3585C29.3446 26.0304 25.618 30.9617 20.3568 33.6511V32.7893C25.1569 30.2076 28.5869 25.5926 29.7818 20.3584H30.5728V20.3585Z" fill="#13B8A9"/>
<path d="M10.4605 11.4015V16.2487C10.4605 17.6422 10.6221 19.0222 10.9317 20.3587H10.1407C9.85118 19.0224 9.69971 17.6456 9.69971 16.2487V10.708C13.5135 10.4051 17.1521 9.15965 20.3567 7.06598V7.96811C17.3644 9.83628 13.9646 11.0144 10.4605 11.4015Z" fill="#13B8A9"/>
</g>
<defs>
<clipPath id="clip0_292_344">
<rect width="40" height="40" rx="20" fill="white"/>
</clipPath>
</defs>
</svg>
