<svg width="40" height="40" viewBox="0 0 40 40" fill="none" xmlns="http://www.w3.org/2000/svg">
<g clip-path="url(#clip0_731_197)">
<path d="M40 20C40 31.0458 31.0458 40 20 40C8.95416 40 0 31.0458 0 20C0 8.95416 8.95416 0 20 0C31.0458 0 40 8.95416 40 20Z" fill="#4A7AFF"/>
<path d="M12.8427 10.9991V33.9386H27.1572V10.9991H12.8427ZM19.9999 17.3593C18.6755 17.3593 17.6019 16.2854 17.6019 14.9612C17.6019 13.6368 18.6755 12.5629 19.9999 12.5629C21.3244 12.5629 22.398 13.6368 22.398 14.9612C22.398 16.2854 21.3244 17.3593 19.9999 17.3593Z" fill="#FC5D66"/>
<path d="M18.5562 5.1239H21.4437V14.9612H18.5562V5.1239Z" fill="white"/>
<path d="M19.9722 5.1239H21.4437V14.9612H19.9722V5.1239Z" fill="#F2F6FC"/>
<path d="M10.8593 19.5773L11.7507 16.5665L12.6418 19.5773L15.653 20.4688L12.6418 21.3602L11.7507 24.371L10.8593 21.3602L7.84814 20.4688L10.8593 19.5773Z" fill="#FFDA00"/>
<path d="M27.9773 12.471L29.2966 8.01483L30.6155 12.471L35.072 13.7903L30.6155 15.1093L29.2966 19.5657L27.9773 15.1093L23.5211 13.7903L27.9773 12.471Z" fill="#FFD400"/>
<path d="M30.8483 23.8504L31.4102 21.9531L31.9717 23.8504L33.869 24.4122L31.9717 24.9738L31.4102 26.871L30.8483 24.9738L28.951 24.4122L30.8483 23.8504Z" fill="#FFD400"/>
</g>
<defs>
<clipPath id="clip0_731_197">
<rect width="40" height="40" fill="white"/>
</clipPath>
</defs>
</svg>
