<svg width="40" height="40" viewBox="0 0 40 40" fill="none" xmlns="http://www.w3.org/2000/svg">
<g clip-path="url(#clip0_279_66)">
<path d="M20 40C31.0457 40 40 31.0457 40 20C40 8.9543 31.0457 0 20 0C8.9543 0 0 8.9543 0 20C0 31.0457 8.9543 40 20 40Z" fill="#5337FF"/>
<path fill-rule="evenodd" clip-rule="evenodd" d="M16.9571 28.1895V33.1244C16.9571 33.4818 17.2789 33.7741 17.6722 33.7741H22.2577C22.651 33.7741 22.9728 33.4817 22.9728 33.1244V28.1895C22.9728 27.9573 23.6745 25.9394 24.023 25.4066C24.2477 25.063 26.2017 22.2121 27.3455 20.2288L25.8552 18.7385L22.7915 22.5128C20.7875 24.9816 19.3104 25.1909 17.2404 22.6479L14.0012 18.6685L12.5062 20.1635C13.6965 22.1903 15.684 25.0659 15.9069 25.4066C16.2554 25.9394 16.9571 27.9573 16.9571 28.1895Z" fill="#FFBF31"/>
<path fill-rule="evenodd" clip-rule="evenodd" d="M16.9571 28.1895V32.7627C16.9571 33.1201 17.2788 33.4125 17.6721 33.4125H22.2577C22.6509 33.4125 22.9728 33.12 22.9728 32.7627V27.122C22.9728 26.8897 23.6744 24.8718 24.023 24.339C24.2234 24.0327 25.7987 21.7326 26.9486 19.8318L25.8552 18.7383L22.7915 22.5127C20.7875 24.9815 19.3104 25.1908 17.2403 22.6478L14.0012 18.6683L12.907 19.7625C14.0966 21.7019 15.7074 24.0343 15.9068 24.339C16.2553 24.8718 16.957 26.8897 16.957 27.122V28.1895H16.9571Z" fill="#F3DE1E"/>
<path fill-rule="evenodd" clip-rule="evenodd" d="M20.6915 11.9029H21.5848V8.34749H25.1402V7.45419C25.1402 6.77865 25.6929 6.22595 26.3685 6.22595C27.044 6.22595 27.5967 6.77865 27.5967 7.45419V8.34749H31.1521V17.9149H21.5848V14.3595H20.6915C20.016 14.3595 19.4633 13.8068 19.4633 13.1312C19.4633 12.4557 20.016 11.9029 20.6915 11.9029Z" fill="#14B5A2"/>
<path fill-rule="evenodd" clip-rule="evenodd" d="M20.6915 11.9029H21.5848V8.34749H25.1403V7.45419C25.1403 6.77865 25.6929 6.22595 26.3685 6.22595C27.044 6.22595 27.5967 6.77865 27.5967 7.45419V8.34749H31.1522V17.3983H21.5848V13.8429H20.6915C20.1045 13.8429 19.6103 13.4255 19.4908 12.8729C19.6103 12.3204 20.1045 11.9029 20.6915 11.9029Z" fill="#F3DE1E"/>
<path fill-rule="evenodd" clip-rule="evenodd" d="M8.89972 8.34753H12.4552V9.24083C12.4552 9.91637 13.0078 10.4691 13.6835 10.4691C14.359 10.4691 14.9117 9.91637 14.9117 9.24083V8.34753H18.4671V11.903H17.5738C16.8983 11.903 16.3456 12.4557 16.3456 13.1312C16.3456 13.8068 16.8983 14.3594 17.5738 14.3594H18.4671V17.9149H8.89972V8.34753Z" fill="#60B7FE"/>
<path fill-rule="evenodd" clip-rule="evenodd" d="M8.89972 8.34753H12.4552V9.24083C12.4552 9.91637 13.0078 10.4691 13.6835 10.4691C14.359 10.4691 14.9117 9.91637 14.9117 9.24083V8.34753H18.4671V11.3865H17.5738C16.8983 11.3865 16.3456 11.9392 16.3456 12.6147C16.3456 12.7032 16.3552 12.7896 16.3732 12.873C16.3552 12.9563 16.3456 13.0427 16.3456 13.1312C16.3456 13.8068 16.8983 14.3594 17.5738 14.3594H18.4671V17.3984H8.89972V8.34753Z" fill="#3FC33C"/>
<path fill-rule="evenodd" clip-rule="evenodd" d="M12.4008 25.1044V33.0065C12.4008 33.4287 12.0554 33.7741 11.6331 33.7741H7.12135C6.69917 33.7741 6.3537 33.4287 6.3537 33.0065V26.1053C6.3537 25.3787 6.83639 24.9126 7.34293 24.3919L14.6986 16.8296C15.1906 16.3238 16.1356 16.6681 16.4513 17.2992C16.8427 17.8863 13.8888 21.21 13.5283 21.8166C13.1541 22.446 12.4008 24.83 12.4008 25.1044Z" fill="#C89D8D"/>
<path fill-rule="evenodd" clip-rule="evenodd" d="M12.4008 25.1044V32.5589C12.4008 32.9811 12.0553 33.3265 11.6331 33.3265H7.12135C6.69917 33.3265 6.3537 32.9811 6.3537 32.5589V26.1053C6.3537 25.3788 6.83639 24.9126 7.34293 24.3919L14.6986 16.8296C15.1154 16.401 15.8574 16.5828 16.2663 17.0321C15.6283 18.2301 13.8065 20.3154 13.5283 20.7835C13.1541 21.4129 12.4008 23.7969 12.4008 24.0713V25.1044Z" fill="#FBD2C3"/>
<path fill-rule="evenodd" clip-rule="evenodd" d="M27.6511 25.1044V33.0065C27.6511 33.4287 27.9965 33.7741 28.4188 33.7741H32.9305C33.3528 33.7741 33.6982 33.4287 33.6982 33.0065V26.1053C33.6982 25.3787 33.2155 24.9126 32.709 24.3919L25.3534 16.8296C24.8613 16.3238 23.9163 16.6681 23.6007 17.2992C23.2093 17.8863 26.1631 21.21 26.5237 21.8166C26.8978 22.446 27.6511 24.83 27.6511 25.1044Z" fill="#E33F65"/>
<path fill-rule="evenodd" clip-rule="evenodd" d="M27.6511 24.0713V32.5588C27.6511 32.981 27.9965 33.3265 28.4188 33.3265H32.9306C33.3528 33.3265 33.6982 32.981 33.6982 32.5588V26.1052C33.6982 25.3787 33.2155 24.9126 32.709 24.3918L25.3534 16.8296C24.9365 16.4011 24.1946 16.5827 23.7856 17.0321C24.4237 18.2301 26.2455 20.3154 26.5237 20.7835C26.8978 21.413 27.6511 23.797 27.6511 24.0713Z" fill="#F44A66"/>
<path fill-rule="evenodd" clip-rule="evenodd" d="M31.5473 19.2257C30.3683 19.2257 29.4126 20.1815 29.4126 21.3604C29.4126 22.5394 30.3683 23.4951 31.5473 23.4951C32.7262 23.4951 33.682 22.5393 33.682 21.3604C33.682 20.1815 32.7262 19.2257 31.5473 19.2257ZM8.43649 19.2257C9.61546 19.2257 10.5712 20.1815 10.5712 21.3604C10.5712 22.5394 9.61546 23.4951 8.43649 23.4951C7.25752 23.4951 6.30176 22.5393 6.30176 21.3604C6.30176 20.1815 7.25752 19.2257 8.43649 19.2257ZM19.8932 20.2886C18.7142 20.2886 17.7585 21.2443 17.7585 22.4233C17.7585 23.6023 18.7142 24.558 19.8932 24.558C21.0721 24.558 22.0279 23.6022 22.0279 22.4233C22.0279 21.2443 21.0721 20.2886 19.8932 20.2886Z" fill="#CF8C48"/>
<path fill-rule="evenodd" clip-rule="evenodd" d="M31.0996 19.2728C30.1356 19.4786 29.4126 20.3349 29.4126 21.3603C29.4126 22.3857 30.1356 23.2421 31.0996 23.4478C32.0637 23.2421 32.7867 22.3857 32.7867 21.3603C32.7867 20.3349 32.0636 19.4786 31.0996 19.2728ZM7.98877 19.2728C8.95278 19.4786 9.67584 20.3349 9.67584 21.3603C9.67584 22.3857 8.95278 23.2421 7.98877 23.4478C7.02475 23.2421 6.30176 22.3857 6.30176 21.3603C6.30176 20.3349 7.02482 19.4786 7.98877 19.2728ZM19.4455 24.5108C20.4096 24.3051 21.1326 23.4486 21.1326 22.4232C21.1326 21.3978 20.4096 20.5414 19.4455 20.3356C18.4815 20.5414 17.7585 21.3977 17.7585 22.4232C17.7585 23.4486 18.4815 24.3051 19.4455 24.5108Z" fill="#F0B16E"/>
</g>
<defs>
<clipPath id="clip0_279_66">
<rect width="40" height="40" fill="white"/>
</clipPath>
</defs>
</svg>
