<svg width="30" height="31" viewBox="0 0 30 31" fill="none" xmlns="http://www.w3.org/2000/svg">
<rect y="0.5" width="30" height="30" rx="15" fill="white"/>
<path d="M15 27.9219C21.8604 27.9219 27.4219 22.3604 27.4219 15.5C27.4219 8.63959 21.8604 3.07812 15 3.07812C8.13959 3.07812 2.57812 8.63959 2.57812 15.5C2.57812 22.3604 8.13959 27.9219 15 27.9219Z" fill="url(#paint0_linear_667_2244)"/>
<path d="M21.0459 10.2255L18.8284 21.4101C18.8284 21.4101 18.5179 22.1865 17.6639 21.8128L12.5447 17.8873L10.6814 16.9896L7.54686 15.9367C7.54686 15.9367 7.06649 15.7669 7.01796 15.3932C6.96944 15.0196 7.56142 14.8207 7.56142 14.8207L20.0221 9.93441C20.0221 9.92955 21.0459 9.47829 21.0459 10.2255Z" fill="white"/>
<path d="M12.1469 21.2839C12.1469 21.2839 11.9964 21.2694 11.812 20.6823C11.6277 20.0951 10.6815 16.9897 10.6815 16.9897L18.2074 12.2101C18.2074 12.2101 18.6441 11.9481 18.6247 12.2101C18.6247 12.2101 18.7023 12.2587 18.4694 12.4722C18.2365 12.6905 12.5593 17.7951 12.5593 17.7951" fill="#D2E4F0"/>
<path d="M14.505 19.3915L12.4816 21.2403C12.4816 21.2403 12.3215 21.3616 12.1517 21.2839L12.5399 17.8534" fill="#B5CFE4"/>
<defs>
<linearGradient id="paint0_linear_667_2244" x1="15" y1="3.07812" x2="15" y2="27.8312" gradientUnits="userSpaceOnUse">
<stop stop-color="#41BCE7"/>
<stop offset="1" stop-color="#22A6DC"/>
</linearGradient>
</defs>
</svg>
