<svg width="40" height="40" viewBox="0 0 40 40" fill="none" xmlns="http://www.w3.org/2000/svg">
<g clip-path="url(#clip0_468_6096)">
<path d="M39.9999 0H0.000244141V39.9996H39.9999V0Z" fill="#FFD160"/>
<path d="M33.6757 19.9996C33.6757 27.5527 27.5537 33.6762 19.9997 33.6762C12.4475 33.6762 6.32434 27.5525 6.32434 19.9996C6.32434 12.4467 12.4475 6.32355 19.9997 6.32355C27.5537 6.32355 33.6757 12.4463 33.6757 19.9996Z" fill="#34495E"/>
<path d="M31.842 19.9995C31.842 26.5396 26.54 31.8423 19.9996 31.8423C13.4603 31.8423 8.15784 26.5396 8.15784 19.9995C8.15784 13.4594 13.4599 8.15878 19.9996 8.15878C26.5397 8.15866 31.842 13.4594 31.842 19.9995Z" fill="white"/>
<path d="M19.9998 8.15869C15.5727 8.15869 11.7156 10.5898 9.68457 14.1889L19.9883 19.9824L29.9087 13.5183C27.7942 10.2904 24.148 8.15869 19.9998 8.15869Z" fill="#80DCFF"/>
<path d="M20.3324 9.33801H19.6693V11.6107H20.3324V9.33801Z" fill="#283A4D"/>
<path d="M11.6087 19.6694H9.33496V20.3304H11.6087V19.6694Z" fill="#283A4D"/>
<path d="M20.3324 28.3905H19.6693V30.6653H20.3324V28.3905Z" fill="#283A4D"/>
<path d="M30.6653 19.6694H28.3905V20.3304H30.6653V19.6694Z" fill="#283A4D"/>
<path d="M25.461 15.9894L19.7931 19.6814C19.6184 19.7972 19.5683 20.0322 19.6832 20.2069C19.7981 20.3827 20.0331 20.4324 20.2074 20.3175L25.8757 16.6244L25.461 15.9894Z" fill="#283A4D"/>
<path d="M20.1852 19.67L16.417 17.5458L16.0453 18.2072L19.8143 20.3304C19.9968 20.4328 20.2279 20.368 20.3307 20.1867C20.4336 20.0031 20.3684 19.773 20.1852 19.67Z" fill="#283A4D"/>
<path d="M18.0845 28.3759L20.4999 18.6108L20.2105 18.5393L17.7952 28.3043L18.0845 28.3759Z" fill="#FF7059"/>
<path d="M20.7955 19.9995C20.7955 20.439 20.4391 20.7954 20.0007 20.7954C19.5618 20.7954 19.2054 20.439 19.2054 19.9995C19.2054 19.5617 19.5618 19.2053 20.0007 19.2053C20.4391 19.2053 20.7955 19.5616 20.7955 19.9995Z" fill="#FF7059"/>
<path d="M21.8074 10.4007L21.5857 10.3614L21.7419 9.47556L21.9624 9.51582L21.8074 10.4007Z" fill="#283A4D"/>
<path d="M23.4455 10.8591L23.2357 10.7823L23.5414 9.93964L23.7541 10.0162L23.4455 10.8591Z" fill="#283A4D"/>
<path d="M24.9814 11.5971L24.7876 11.4838L25.2346 10.7066L25.4294 10.8199L24.9814 11.5971Z" fill="#283A4D"/>
<path d="M26.364 12.5893L26.1941 12.4447L26.7697 11.7588L26.9413 11.901L26.364 12.5893Z" fill="#283A4D"/>
<path d="M27.5566 13.8046L28.2426 13.2263L28.0974 13.0542L27.4115 13.6325L27.5566 13.8046Z" fill="#283A4D"/>
<path d="M28.5162 15.214L29.2939 14.7657L29.1818 14.5712L28.4041 15.0195L28.5162 15.214Z" fill="#283A4D"/>
<path d="M29.2223 16.7643L30.0641 16.4564L29.9867 16.245L29.145 16.5529L29.2223 16.7643Z" fill="#283A4D"/>
<path d="M29.6394 18.413L29.6012 18.1941L30.484 18.037L30.523 18.2585L29.6394 18.413Z" fill="#283A4D"/>
<path d="M29.6012 21.8072L29.6398 21.5837L30.5217 21.7407L30.484 21.9626L29.6012 21.8072Z" fill="#283A4D"/>
<path d="M29.1414 23.4451L29.2186 23.236L30.0602 23.5406L29.9836 23.7531L29.1414 23.4451Z" fill="#283A4D"/>
<path d="M29.1807 25.4294L29.2928 25.2357L28.5165 24.786L28.4043 24.9797L29.1807 25.4294Z" fill="#283A4D"/>
<path d="M27.4105 26.3631L27.5555 26.1923L28.2427 26.7686L28.0977 26.9418L27.4105 26.3631Z" fill="#283A4D"/>
<path d="M26.7674 28.2404L26.9386 28.0966L26.362 27.4098L26.1908 27.5536L26.7674 28.2404Z" fill="#283A4D"/>
<path d="M24.7876 28.5152L24.9824 28.4029L25.4307 29.1801L25.2346 29.294L24.7876 28.5152Z" fill="#283A4D"/>
<path d="M23.2366 29.2175L23.4463 29.1399L23.7543 29.9835L23.5426 30.061L23.2366 29.2175Z" fill="#283A4D"/>
<path d="M21.5865 29.6372L21.8074 29.6009L21.9625 30.4849L21.742 30.5222L21.5865 29.6372Z" fill="#283A4D"/>
<path d="M18.2558 30.5242L18.4131 29.6405L18.1923 29.6012L18.0351 30.4849L18.2558 30.5242Z" fill="#283A4D"/>
<path d="M16.5547 29.1409L16.7651 29.2174L16.4584 30.061L16.2457 29.9825L16.5547 29.1409Z" fill="#283A4D"/>
<path d="M15.0192 28.4029L15.2134 28.5158L14.7654 29.294L14.5707 29.1801L15.0192 28.4029Z" fill="#283A4D"/>
<path d="M13.2299 28.2405L13.8085 27.5559L13.6372 27.4112L13.0586 28.0958L13.2299 28.2405Z" fill="#283A4D"/>
<path d="M12.4461 26.1934L12.5894 26.3652L11.9032 26.9418L11.7579 26.7677L12.4461 26.1934Z" fill="#283A4D"/>
<path d="M11.4849 24.7864L11.5963 24.9813L10.8201 25.4308L10.7085 25.2355L11.4849 24.7864Z" fill="#283A4D"/>
<path d="M10.7831 23.236L10.8587 23.4461L10.0176 23.7531L9.94104 23.5406L10.7831 23.236Z" fill="#283A4D"/>
<path d="M9.51574 21.9642L10.3986 21.8055L10.3589 21.5848L9.47608 21.7435L9.51574 21.9642Z" fill="#283A4D"/>
<path d="M10.4005 18.1941L10.3609 18.413L9.47693 18.2585L9.51822 18.037L10.4005 18.1941Z" fill="#283A4D"/>
<path d="M10.8588 16.5536L10.7831 16.764L9.94019 16.458L10.018 16.2467L10.8588 16.5536Z" fill="#283A4D"/>
<path d="M11.4846 15.2131L11.5967 15.0186L10.819 14.5703L10.7069 14.7648L11.4846 15.2131Z" fill="#283A4D"/>
<path d="M12.5893 13.6352L12.4447 13.8054L11.7571 13.2301L11.9041 13.0583L12.5893 13.6352Z" fill="#283A4D"/>
<path d="M13.8075 12.4447L13.636 12.5893L13.0588 11.901L13.2313 11.7588L13.8075 12.4447Z" fill="#283A4D"/>
<path d="M15.2135 11.4838L15.0186 11.5952L14.5697 10.8199L14.7661 10.7066L15.2135 11.4838Z" fill="#283A4D"/>
<path d="M16.7634 10.7817L16.5543 10.8572L16.2457 10.0156L16.4595 9.93964L16.7634 10.7817Z" fill="#283A4D"/>
<path d="M18.4151 10.3614L18.1932 10.398L18.0371 9.51582L18.2589 9.47556L18.4151 10.3614Z" fill="#283A4D"/>
<path d="M29.909 13.5171L29.4311 13.828C27.4121 10.7584 23.9399 8.72627 19.9999 8.72627C15.7948 8.72627 12.1197 11.0432 10.1824 14.4661L9.68506 14.188C10.3199 13.0623 11.1315 12.0544 12.0838 11.1937C12.1787 11.1085 12.2768 11.0235 12.375 10.9417C12.5714 10.7781 12.771 10.6178 12.9804 10.4639C13.0721 10.3984 13.1637 10.3297 13.2553 10.2675C13.4516 10.1301 13.6545 9.99921 13.8607 9.87483C13.9261 9.83226 13.9949 9.79302 14.0635 9.75377C14.6068 9.43637 15.1795 9.1614 15.7751 8.93565C15.8667 8.89961 15.9616 8.86688 16.0532 8.83416C16.1711 8.79159 16.2921 8.75234 16.4099 8.7163C16.8942 8.55919 17.3949 8.43481 17.9054 8.34648C17.9807 8.33012 18.056 8.32027 18.1311 8.30724C18.7399 8.20906 19.3648 8.15997 19.9998 8.15997C20.1273 8.15997 20.2517 8.1633 20.3761 8.16649C21.0633 8.18618 21.7338 8.26799 22.3853 8.40209C22.4835 8.42177 22.5784 8.44133 22.6733 8.46421C22.8076 8.49361 22.9417 8.52634 23.0726 8.56239C23.1674 8.58859 23.2624 8.6148 23.3572 8.6442C23.7957 8.77177 24.2245 8.92568 24.6436 9.10567C24.7156 9.13507 24.7873 9.16779 24.8593 9.20052C24.928 9.22992 25.0003 9.26265 25.069 9.29869C25.1771 9.34778 25.2851 9.40019 25.3894 9.4558C25.5104 9.51473 25.6254 9.57686 25.7428 9.64231C25.8315 9.69472 25.9195 9.7438 26.0082 9.79608C26.2239 9.92366 26.437 10.0579 26.6428 10.1986C26.7409 10.2641 26.8395 10.3328 26.9373 10.4048C27.0355 10.4768 27.1303 10.5488 27.2285 10.6209C27.3233 10.6928 27.415 10.7681 27.51 10.8466C27.6016 10.9219 27.6933 10.9972 27.7848 11.079C27.8731 11.1575 27.9648 11.2361 28.0531 11.3179C28.1415 11.3997 28.2262 11.4849 28.3116 11.5667C28.9109 12.159 29.4476 12.8102 29.909 13.5171Z" fill="#73C9ED"/>
<path d="M29.9078 13.5177L29.4314 13.828C30.5931 15.6016 31.2738 17.7222 31.2738 19.9999C31.2738 26.2143 26.2145 31.2736 20.0001 31.2736C13.7858 31.2736 8.72645 26.2143 8.72645 19.9998C8.72645 17.9905 9.25657 16.099 10.1827 14.466L9.68532 14.1878C9.91439 13.7813 10.1676 13.3913 10.4416 13.0173C9.0073 14.9742 8.15735 17.3856 8.15735 19.9998C8.15735 26.5382 13.4621 31.8428 20.0004 31.8428C26.5387 31.8428 31.8434 26.5381 31.8434 19.9998C31.8432 17.6056 31.1298 15.3801 29.9078 13.5177Z" fill="#E6E9EB"/>
</g>
<defs>
<clipPath id="clip0_468_6096">
<rect width="40" height="40" rx="20" fill="white"/>
</clipPath>
</defs>
</svg>
