<svg width="40" height="40" viewBox="0 0 40 40" fill="none" xmlns="http://www.w3.org/2000/svg">
<g clip-path="url(#clip0_468_7536)">
<g clip-path="url(#clip1_468_7536)">
<path d="M20 39.6923C30.8758 39.6923 39.6924 30.8757 39.6924 20C39.6924 9.12422 30.8758 0.307678 20 0.307678C9.12429 0.307678 0.307739 9.12422 0.307739 20C0.307739 30.8757 9.12429 39.6923 20 39.6923Z" fill="#FC5D66"/>
<path d="M11.3031 36.6633H9.51001C9.85173 36.8789 10.1983 37.0872 10.5538 37.2819H11.3031C11.4739 37.2819 11.6124 37.1435 11.6124 36.9726C11.6124 36.8018 11.4739 36.6633 11.3031 36.6633Z" fill="#FC5D66"/>
<path d="M18.1174 36.9727C18.1174 36.8018 18.2559 36.6634 18.4267 36.6634H20.3718C20.5419 36.6634 20.6811 36.8025 20.6811 36.9727C20.6811 37.1428 20.5419 37.282 20.3718 37.282H18.4267C18.2559 37.282 18.1174 37.1435 18.1174 36.9727Z" fill="#FC5D66"/>
<path d="M17.235 36.9727C17.235 37.1435 17.0965 37.282 16.9257 37.282H13.0313C12.8605 37.282 12.722 37.1435 12.722 36.9727C12.722 36.8018 12.8605 36.6634 13.0313 36.6634H16.9257C17.0965 36.6634 17.235 36.8018 17.235 36.9727Z" fill="#FC5D66"/>
<path d="M30.8609 33.9365C30.6901 33.9365 30.5516 34.0749 30.5516 34.2458C30.5516 34.4166 30.6901 34.5551 30.8609 34.5551H33.2641C33.4849 34.3537 33.7014 34.1476 33.9129 33.9365H30.8609Z" fill="#FC5D66"/>
<path d="M28.0618 34.2457C28.0618 34.0749 28.2002 33.9364 28.3711 33.9364L29.6398 33.9364C29.8099 33.9364 29.9491 34.0756 29.9491 34.2457C29.9491 34.4158 29.8099 34.555 29.6398 34.555H28.3711C28.2002 34.555 28.0618 34.4166 28.0618 34.2457Z" fill="#FC5D66"/>
<path d="M19.9702 28.4098C19.9702 28.5806 19.8317 28.7191 19.6609 28.7191L14.7355 28.7191C14.5654 28.7191 14.4263 28.5799 14.4263 28.4098C14.4263 28.2396 14.5654 28.1005 14.7355 28.1005L19.6609 28.1005C19.8317 28.1005 19.9702 28.2389 19.9702 28.4098Z" fill="#FC5D66"/>
<path d="M20.4506 28.4098C20.4506 28.2389 20.589 28.1005 20.7599 28.1005H22.2393C22.4101 28.1005 22.5486 28.2389 22.5486 28.4098C22.5486 28.5806 22.4101 28.7191 22.2393 28.7191H20.7599C20.589 28.7191 20.4506 28.5806 20.4506 28.4098Z" fill="#FC5D66"/>
<path d="M32.8432 22.5343C32.8432 22.7052 32.7047 22.8436 32.5339 22.8436L31.3411 22.8436C31.171 22.8436 31.0319 22.7044 31.0319 22.5343C31.0319 22.3642 31.171 22.225 31.3411 22.225L32.5339 22.225C32.7047 22.225 32.8432 22.3635 32.8432 22.5343Z" fill="#FC5D66"/>
<path d="M33.3236 22.5343C33.3236 22.3635 33.4621 22.225 33.6329 22.225H35.1123C35.2831 22.225 35.4216 22.3635 35.4216 22.5343C35.4216 22.7052 35.2831 22.8436 35.1123 22.8436H33.6329C33.4621 22.8436 33.3236 22.7052 33.3236 22.5343Z" fill="#FC5D66"/>
<path d="M25.3094 22.5343C25.3094 22.3635 25.4479 22.225 25.6187 22.225H30.2473C30.4181 22.225 30.5566 22.3635 30.5566 22.5343C30.5566 22.7052 30.4181 22.8436 30.2473 22.8436H25.6187C25.4479 22.8436 25.3094 22.7052 25.3094 22.5343Z" fill="#FC5D66"/>
<path d="M6.08784 28.4098C6.08784 28.5806 5.94936 28.7191 5.77854 28.7191H5.26425C5.09343 28.7191 4.95496 28.5806 4.95496 28.4098C4.95496 28.2389 5.09343 28.1005 5.26425 28.1005H5.77854C5.94936 28.1005 6.08784 28.2389 6.08784 28.4098Z" fill="#FC5D66"/>
<path d="M3.8273 28.1005H2.05176C2.14566 28.3083 2.24136 28.5151 2.34225 28.7191H3.8273C3.99812 28.7191 4.13664 28.5806 4.13664 28.4098C4.13664 28.2389 3.99812 28.1005 3.8273 28.1005Z" fill="#FC5D66"/>
<path d="M31.5419 22.7634C33.9704 22.7634 35.9391 20.7947 35.9391 18.3661C35.9391 15.9376 33.9704 13.9689 31.5419 13.9689C29.1134 13.9689 27.1447 15.9376 27.1447 18.3661C27.1447 20.7947 29.1134 22.7634 31.5419 22.7634Z" fill="#2F4867"/>
<path d="M37.9266 28.1656C35.8774 32.6547 32.1942 36.2393 27.6373 38.1562H24.4465V30.9686C24.4465 27.7132 27.0866 25.0702 30.3419 25.0702H32.7388C34.4619 25.0702 36.0127 25.8116 37.0866 26.9901C37.4158 27.344 37.6958 27.7378 37.9266 28.1656Z" fill="#705C85"/>
<path d="M33.3706 21.9438V25.8195C33.3706 26.8294 32.5519 27.6482 31.5419 27.6482C30.5319 27.6482 29.7131 26.8294 29.7131 25.8195V21.9438H33.3706Z" fill="#F2B58C"/>
<path d="M35.9822 21.5005C35.9822 22.0082 35.5737 22.4168 35.066 22.4168C34.5585 22.4168 34.1436 22.0082 34.1436 21.5005C34.1436 20.9928 34.5585 20.5781 35.066 20.5781C35.5737 20.5781 35.9822 20.9928 35.9822 21.5005Z" fill="#F2B58C"/>
<path d="M28.9404 21.5005C28.9404 22.0082 28.5318 22.4168 28.0241 22.4168C27.5166 22.4168 27.1017 22.0082 27.1017 21.5005C27.1017 20.9928 27.5166 20.5781 28.0241 20.5781C28.5318 20.5781 28.9404 20.9928 28.9404 21.5005Z" fill="#F2B58C"/>
<path d="M35.0974 17.9749V21.7527C35.0974 23.7203 33.5043 25.3082 31.5419 25.3082C29.5794 25.3082 27.9865 23.7203 27.9865 21.7527V17.9749H35.0974Z" fill="#FFCEAB"/>
<path d="M35.6103 17.6477C35.6103 18.6388 34.4292 19.4435 32.9748 19.4435C31.5203 19.4435 30.339 18.6388 30.339 17.6477C30.339 16.6508 31.5203 15.8521 32.9748 15.8521C34.4292 15.852 35.6103 16.6508 35.6103 17.6477Z" fill="#2F4867"/>
<path d="M31.5415 17.6477C31.5415 18.4125 30.6301 19.0335 29.5077 19.0335C28.3852 19.0335 27.4736 18.4125 27.4736 17.6477C27.4736 16.8784 28.3852 16.262 29.5077 16.262C30.6301 16.262 31.5415 16.8784 31.5415 17.6477Z" fill="#2F4867"/>
<path d="M35.3254 18.7945V21.6254C35.3254 21.7893 35.1901 21.9203 35.0303 21.9203C34.8665 21.9203 34.7354 21.7893 34.7354 21.6254V18.7945C34.7354 18.6306 34.8665 18.4995 35.0303 18.4995C35.1901 18.4995 35.3254 18.6306 35.3254 18.7945Z" fill="#2F4867"/>
<path d="M28.3487 18.7945V21.6254C28.3487 21.7893 28.2135 21.9203 28.0536 21.9203C27.8898 21.9203 27.7587 21.7893 27.7587 21.6254V18.7945C27.7587 18.6306 27.8898 18.4995 28.0536 18.4995C28.2134 18.4995 28.3487 18.6306 28.3487 18.7945Z" fill="#2F4867"/>
<path d="M8.45729 22.7634C10.8858 22.7634 12.8545 20.7947 12.8545 18.3661C12.8545 15.9376 10.8858 13.9689 8.45729 13.9689C6.02877 13.9689 4.06006 15.9376 4.06006 18.3661C4.06006 20.7947 6.02877 22.7634 8.45729 22.7634Z" fill="#2F4867"/>
<path d="M15.5512 30.9686V38.1562H12.3634C7.80649 36.2393 4.12034 32.6517 2.07422 28.1624C2.07422 28.1594 2.07422 28.1594 2.07422 28.1594C3.07422 26.3194 5.02186 25.0701 7.25879 25.0701H9.65572C12.9111 25.0701 15.5512 27.7132 15.5512 30.9686Z" fill="#EDEDED"/>
<path d="M10.2861 21.9438V25.8195C10.2861 26.8294 9.46739 27.6482 8.4574 27.6482C7.44742 27.6482 6.62866 26.8294 6.62866 25.8195V21.9438H10.2861Z" fill="#F2B58C"/>
<path d="M12.8977 21.5005C12.8977 22.0082 12.4891 22.4168 11.9814 22.4168C11.4739 22.4168 11.059 22.0082 11.059 21.5005C11.059 20.9928 11.4739 20.5781 11.9814 20.5781C12.4891 20.5781 12.8977 20.9928 12.8977 21.5005Z" fill="#F2B58C"/>
<path d="M5.85579 21.5005C5.85579 22.0082 5.44724 22.4168 4.93954 22.4168C4.43199 22.4168 4.01709 22.0082 4.01709 21.5005C4.01709 20.9928 4.43198 20.5781 4.93954 20.5781C5.44723 20.5781 5.85579 20.9928 5.85579 21.5005Z" fill="#F2B58C"/>
<path d="M12.0129 17.9749V21.7527C12.0129 23.7203 10.4198 25.3082 8.45745 25.3082C6.49497 25.3082 4.90198 23.7203 4.90198 21.7527V17.9749H12.0129Z" fill="#FFCEAB"/>
<path d="M12.5258 17.6477C12.5258 18.6388 11.3447 19.4435 9.89037 19.4435C8.43579 19.4435 7.25452 18.6388 7.25452 17.6477C7.25452 16.6508 8.43579 15.8521 9.89037 15.8521C11.3447 15.852 12.5258 16.6508 12.5258 17.6477Z" fill="#2F4867"/>
<path d="M8.45703 17.6477C8.45703 18.4125 7.5456 19.0335 6.42326 19.0335C5.30075 19.0335 4.38916 18.4125 4.38916 17.6477C4.38916 16.8784 5.30075 16.262 6.42326 16.262C7.5456 16.262 8.45703 16.8784 8.45703 17.6477Z" fill="#2F4867"/>
<path d="M12.2408 18.7945V21.6254C12.2408 21.7893 12.1055 21.9203 11.9457 21.9203C11.7819 21.9203 11.6508 21.7893 11.6508 21.6254V18.7945C11.6508 18.6306 11.7819 18.4995 11.9457 18.4995C12.1055 18.4995 12.2408 18.6306 12.2408 18.7945Z" fill="#2F4867"/>
<path d="M5.26409 18.7945V21.6254C5.26409 21.7893 5.12886 21.9203 4.96903 21.9203C4.8052 21.9203 4.67407 21.7893 4.67407 21.6254V18.7945C4.67407 18.6306 4.8052 18.4995 4.96903 18.4995C5.12886 18.4995 5.26409 18.6306 5.26409 18.7945Z" fill="#2F4867"/>
<path d="M19.9998 24.459C23.1694 24.459 25.7389 21.8896 25.7389 18.72C25.7389 15.5504 23.1694 12.9809 19.9998 12.9809C16.8302 12.9809 14.2607 15.5504 14.2607 18.72C14.2607 21.8896 16.8302 24.459 19.9998 24.459Z" fill="#2F4867"/>
<path d="M29.2588 35.1686V37.384C28.7327 37.6671 28.1912 37.9225 27.6373 38.1562C25.2896 39.1471 22.7081 39.6917 20.0004 39.6917C17.2927 39.6917 14.7112 39.1471 12.3635 38.1562C11.8096 37.9225 11.2681 37.6671 10.7419 37.384V35.1686C10.7419 30.9163 14.1851 27.4701 18.4343 27.4701H21.5635C25.8127 27.4701 29.2588 30.9163 29.2588 35.1686Z" fill="#168DE2"/>
<path d="M22.3866 23.3893V28.4475C22.3866 29.7656 21.318 30.8342 19.9999 30.8342C18.6817 30.8342 17.6132 29.7656 17.6132 28.4475V23.3893H22.3866Z" fill="#F2B58C"/>
<path d="M25.795 22.8108C25.795 23.4733 25.2618 24.0066 24.5992 24.0066C23.9368 24.0066 23.3953 23.4733 23.3953 22.8108C23.3953 22.1482 23.9368 21.6069 24.5992 21.6069C25.2618 21.6069 25.795 22.1482 25.795 22.8108Z" fill="#F2B58C"/>
<path d="M16.6044 22.8108C16.6044 23.4733 16.0712 24.0066 15.4086 24.0066C14.7462 24.0066 14.2047 23.4733 14.2047 22.8108C14.2047 22.1482 14.7462 21.6069 15.4086 21.6069C16.0712 21.6069 16.6044 22.1482 16.6044 22.8108Z" fill="#F2B58C"/>
<path d="M24.6401 18.2094V23.1399C24.6401 25.7079 22.5609 27.7802 19.9998 27.7802C17.4385 27.7802 15.3595 25.7079 15.3595 23.1399V18.2094H24.6401Z" fill="#FFCEAB"/>
<path d="M25.3095 17.7824C25.3095 19.0758 23.768 20.1261 21.8699 20.1261C19.9715 20.1261 18.4298 19.0758 18.4298 17.7824C18.4298 16.4813 19.9715 15.4388 21.8699 15.4388C23.768 15.4388 25.3095 16.4813 25.3095 17.7824Z" fill="#2F4867"/>
<path d="M19.9992 17.7824C19.9992 18.7805 18.8097 19.591 17.3449 19.591C15.8799 19.591 14.6902 18.7805 14.6902 17.7824C14.6902 16.7784 15.8799 15.9738 17.3449 15.9738C18.8097 15.9738 19.9992 16.7784 19.9992 17.7824Z" fill="#2F4867"/>
<path d="M24.9375 19.279V22.9737C24.9375 23.1875 24.761 23.3586 24.5524 23.3586C24.3386 23.3586 24.1675 23.1875 24.1675 22.9737V19.279C24.1675 19.0651 24.3386 18.894 24.5524 18.894C24.761 18.894 24.9375 19.0651 24.9375 19.279Z" fill="#2F4867"/>
<path d="M15.8322 19.279V22.9737C15.8322 23.1875 15.6557 23.3586 15.4471 23.3586C15.2333 23.3586 15.0621 23.1875 15.0621 22.9737V19.279C15.0621 19.0651 15.2333 18.894 15.4471 18.894C15.6557 18.894 15.8322 19.0651 15.8322 19.279Z" fill="#2F4867"/>
</g>
</g>
<defs>
<clipPath id="clip0_468_7536">
<rect width="40" height="40" rx="20" fill="white"/>
</clipPath>
<clipPath id="clip1_468_7536">
<rect width="40" height="40" fill="white"/>
</clipPath>
</defs>
</svg>
