<svg width="30" height="31" viewBox="0 0 30 31" fill="none" xmlns="http://www.w3.org/2000/svg">
<rect y="0.5" width="30" height="30" rx="15" fill="#834995"/>
<path fill-rule="evenodd" clip-rule="evenodd" d="M15.419 5.90604C20.2971 5.92727 22.4851 7.51508 23.0256 8.01304C24.822 9.57526 25.818 13.0317 25.1455 18.5058C24.5565 23.3335 21.192 24.1901 20.0598 24.4783C19.9482 24.5068 19.8583 24.5297 19.7949 24.5503C19.4884 24.6481 16.8024 25.3207 13.3034 25.0269C12.9161 25.4739 12.4053 26.0614 12.0349 26.4615C11.9228 26.5821 11.8178 26.7013 11.7174 26.8153C11.212 27.389 10.8239 27.8295 10.2344 27.6448C9.647 27.466 9.68102 26.5764 9.68102 26.5764L9.68524 24.38H9.68102C4.56875 22.9412 4.64111 17.6375 4.70072 14.8067C4.76033 11.976 5.30942 9.69017 6.86737 8.13231C9.66827 5.56127 15.419 5.90604 15.419 5.90604ZM19.4842 22.9412C20.447 22.7165 23.1229 22.0919 23.6174 18.1057C24.1835 13.5383 23.4087 10.4224 21.8892 9.1198C21.4294 8.70263 19.4543 7.45973 15.3296 7.44272C15.3296 7.44272 10.4472 7.12345 8.07625 9.27309C6.75669 10.5756 6.30971 12.5124 6.26289 14.8748C6.26128 14.9561 6.25943 15.0399 6.25752 15.126C6.20394 17.544 6.10974 21.7948 10.294 22.954C10.294 22.954 10.277 26.3083 10.277 26.6019C10.2727 27.0489 10.5196 27.0701 10.7452 26.8446C11.4348 26.1507 13.6482 23.4818 13.6482 23.4818C16.6151 23.6733 18.9776 23.0859 19.233 23.005C19.2923 22.986 19.3778 22.966 19.4842 22.9412Z" fill="white"/>
<path d="M17.7006 14.6663C17.7176 15.0323 17.1685 15.0579 17.1515 14.6917C17.1046 13.7553 16.6662 13.2999 15.7638 13.2488C15.3977 13.2275 15.4318 12.6784 15.7935 12.6997C16.9812 12.7635 17.641 13.4446 17.7006 14.6663Z" fill="white"/>
<path d="M18.5647 15.1472C18.6072 13.3424 17.4793 11.9292 15.3381 11.7717C14.9763 11.7462 15.0146 11.197 15.3765 11.2226C17.8454 11.4014 19.1606 13.0998 19.1138 15.16C19.1095 15.526 18.5561 15.5091 18.5647 15.1472Z" fill="white"/>
<path d="M20.5654 15.7176C20.5696 16.0837 20.0162 16.0879 20.0162 15.7219C19.9907 12.2527 17.6794 10.3628 14.8742 10.3415C14.5123 10.3372 14.5123 9.79239 14.8742 9.79239C18.0113 9.81366 20.5356 11.9803 20.5654 15.7176Z" fill="white"/>
<path d="M20.0843 19.8934V19.902C19.6245 20.7107 18.7647 21.6047 17.8793 21.3195L17.8708 21.3066C16.9726 21.0555 14.8571 19.9658 13.5205 18.9016C12.8309 18.3567 12.2009 17.714 11.7156 17.0968C11.2772 16.5477 10.8346 15.8964 10.4047 15.1132C9.498 13.4743 9.29795 12.7422 9.29795 12.7422C9.01274 11.8568 9.90238 10.9969 10.7154 10.5373H10.7239C11.1155 10.3329 11.4901 10.401 11.7412 10.7032C11.7412 10.7032 12.2691 11.3331 12.4946 11.644C12.7075 11.9334 12.9927 12.3973 13.1417 12.657C13.4014 13.1209 13.2395 13.5935 12.9842 13.7892L12.4734 14.1979C12.2138 14.4064 12.2478 14.7938 12.2478 14.7938C12.2478 14.7938 13.0055 17.6586 15.8362 18.3822C15.8362 18.3822 16.2236 18.4163 16.4321 18.1566L16.8408 17.6458C17.0365 17.3904 17.5091 17.2287 17.973 17.4884C18.5988 17.8416 19.3947 18.3908 19.9226 18.8888C20.2205 19.1314 20.2886 19.5018 20.0843 19.8934Z" fill="white"/>
</svg>
