<svg width="153" height="57" viewBox="0 0 153 57" fill="none" xmlns="http://www.w3.org/2000/svg">
<path d="M32.775 23H30.812V18.996H27.133V23H25.17V13.718H27.133V17.358H30.812V13.718H32.775V23ZM40.7914 23L40.1154 20.79H36.7354L36.0594 23H33.9404L37.2164 13.679H39.6214L42.9104 23H40.7914ZM38.9714 16.981C38.9281 16.8337 38.8718 16.6473 38.8024 16.422C38.7331 16.1967 38.6638 15.967 38.5944 15.733C38.5251 15.499 38.4688 15.2953 38.4254 15.122C38.3821 15.2953 38.3214 15.512 38.2434 15.772C38.1741 16.0233 38.1048 16.266 38.0354 16.5C37.9748 16.7253 37.9271 16.8857 37.8924 16.981L37.2294 19.139H39.6474L38.9714 16.981ZM55.76 23H44.086V13.718H46.049V21.362H48.935V13.718H50.911V21.362H53.797V13.718H55.76V23ZM58.1016 23V13.718H60.0646V23H58.1016ZM65.1602 23V13.718H72.5052V23H70.5422V15.356H67.1232V23H65.1602ZM83.2708 18.346C83.2708 19.0653 83.1798 19.7197 82.9978 20.309C82.8244 20.8897 82.5558 21.3923 82.1918 21.817C81.8364 22.2417 81.3771 22.5667 80.8138 22.792C80.2591 23.0173 79.6048 23.13 78.8508 23.13C78.0968 23.13 77.4381 23.0173 76.8748 22.792C76.3201 22.558 75.8608 22.233 75.4968 21.817C75.1414 21.3923 74.8728 20.8853 74.6908 20.296C74.5174 19.7067 74.4308 19.0523 74.4308 18.333C74.4308 17.371 74.5868 16.5347 74.8988 15.824C75.2194 15.1133 75.7048 14.563 76.3548 14.173C77.0134 13.7743 77.8498 13.575 78.8638 13.575C79.8691 13.575 80.6968 13.7743 81.3468 14.173C81.9968 14.563 82.4778 15.1177 82.7898 15.837C83.1104 16.5477 83.2708 17.384 83.2708 18.346ZM76.4978 18.346C76.4978 18.996 76.5801 19.555 76.7448 20.023C76.9094 20.491 77.1651 20.8507 77.5118 21.102C77.8584 21.3533 78.3048 21.479 78.8508 21.479C79.4141 21.479 79.8648 21.3533 80.2028 21.102C80.5494 20.8507 80.8008 20.491 80.9568 20.023C81.1214 19.555 81.2038 18.996 81.2038 18.346C81.2038 17.3667 81.0218 16.5997 80.6578 16.045C80.2938 15.4903 79.6958 15.213 78.8638 15.213C78.3091 15.213 77.8584 15.3387 77.5118 15.59C77.1651 15.8413 76.9094 16.201 76.7448 16.669C76.5801 17.137 76.4978 17.696 76.4978 18.346ZM89.1324 15.226C88.7598 15.226 88.4261 15.2997 88.1314 15.447C87.8454 15.5943 87.6028 15.8067 87.4034 16.084C87.2041 16.3527 87.0524 16.682 86.9484 17.072C86.8531 17.462 86.8054 17.8997 86.8054 18.385C86.8054 19.0437 86.8834 19.607 87.0394 20.075C87.2041 20.5343 87.4598 20.8853 87.8064 21.128C88.1531 21.3707 88.5951 21.492 89.1324 21.492C89.5138 21.492 89.8908 21.4487 90.2634 21.362C90.6448 21.2753 91.0564 21.154 91.4984 20.998V22.649C91.0911 22.8137 90.6881 22.935 90.2894 23.013C89.8908 23.091 89.4444 23.13 88.9504 23.13C87.9971 23.13 87.2084 22.935 86.5844 22.545C85.9691 22.1463 85.5141 21.5917 85.2194 20.881C84.9248 20.1617 84.7774 19.3253 84.7774 18.372C84.7774 17.67 84.8728 17.0287 85.0634 16.448C85.2541 15.8587 85.5314 15.3517 85.8954 14.927C86.2681 14.5023 86.7231 14.173 87.2604 13.939C87.8064 13.705 88.4304 13.588 89.1324 13.588C89.5918 13.588 90.0511 13.6487 90.5104 13.77C90.9784 13.8827 91.4248 14.0387 91.8494 14.238L91.2124 15.837C90.8658 15.6723 90.5148 15.5293 90.1594 15.408C89.8128 15.2867 89.4704 15.226 89.1324 15.226ZM100.816 23H98.8528V15.356H96.5778C96.5258 15.7547 96.4694 16.188 96.4088 16.656C96.3568 17.124 96.2961 17.6007 96.2268 18.086C96.1661 18.5627 96.1011 19.0177 96.0318 19.451C95.9624 19.8757 95.8931 20.2527 95.8238 20.582C95.7111 21.1193 95.5594 21.5787 95.3688 21.96C95.1868 22.3413 94.9311 22.6317 94.6018 22.831C94.2811 23.0303 93.8608 23.13 93.3408 23.13C93.1674 23.13 93.0028 23.117 92.8468 23.091C92.6908 23.065 92.5434 23.0303 92.4048 22.987V21.375C92.5174 21.4097 92.6258 21.44 92.7298 21.466C92.8424 21.492 92.9638 21.505 93.0938 21.505C93.2671 21.505 93.4101 21.4487 93.5228 21.336C93.6354 21.2233 93.7351 21.0327 93.8218 20.764C93.9084 20.4867 93.9951 20.1053 94.0818 19.62C94.1251 19.412 94.1771 19.1173 94.2378 18.736C94.2984 18.346 94.3678 17.891 94.4458 17.371C94.5324 16.8423 94.6191 16.2703 94.7058 15.655C94.7924 15.031 94.8748 14.3853 94.9528 13.718H100.816V23ZM107.733 20.283C107.473 20.8723 107.196 21.3837 106.901 21.817C106.615 22.2417 106.247 22.5667 105.796 22.792C105.346 23.0173 104.756 23.13 104.028 23.13C103.803 23.13 103.556 23.1127 103.287 23.078C103.019 23.0433 102.772 22.9957 102.546 22.935V21.245C102.754 21.3317 102.984 21.3923 103.235 21.427C103.487 21.4617 103.721 21.479 103.937 21.479C104.223 21.479 104.453 21.4313 104.626 21.336C104.808 21.2407 104.951 21.1107 105.055 20.946C105.168 20.7727 105.259 20.5863 105.328 20.387L102.117 13.718H104.197L105.926 17.735C105.97 17.8217 106.022 17.9343 106.082 18.073C106.143 18.2117 106.204 18.3547 106.264 18.502C106.325 18.6493 106.373 18.7793 106.407 18.892H106.472C106.507 18.788 106.55 18.6623 106.602 18.515C106.663 18.359 106.724 18.203 106.784 18.047C106.854 17.8823 106.914 17.7393 106.966 17.618L108.578 13.718H110.606L107.733 20.283ZM117.64 13.718V15.343H113.74V23H111.777V13.718H117.64ZM119.065 13.718H120.833V18.203C120.833 18.4197 120.828 18.6623 120.82 18.931C120.811 19.1997 120.802 19.464 120.794 19.724C120.785 19.9753 120.776 20.1963 120.768 20.387C120.759 20.569 120.75 20.6947 120.742 20.764H120.781L125.071 13.718H127.424V23H125.669V18.541C125.669 18.307 125.673 18.0513 125.682 17.774C125.69 17.488 125.699 17.215 125.708 16.955C125.725 16.695 125.738 16.4697 125.747 16.279C125.764 16.0797 125.777 15.9497 125.786 15.889H125.734L121.431 23H119.065V13.718Z" fill="white"/>
<path d="M71.1667 36L76.5 41.3333L81.8334 36" stroke="white" stroke-opacity="0.5" stroke-width="2" stroke-linecap="round" stroke-linejoin="round"/>
<path d="M69 41.3333L76.5 48.3333L84 41.3333" stroke="white" stroke-width="2" stroke-linecap="round" stroke-linejoin="round"/>
</svg>
